<?xml version="1.0" encoding="UTF-8" standalone="no"?>
<!-- Created with Inkscape (http://www.inkscape.org/) -->

<svg
   width="177.70895mm"
   height="34.046581mm"
   viewBox="0 0 177.70895 34.046581"
   version="1.1"
   id="svg5"
   xmlns="http://www.w3.org/2000/svg"
   xmlns:svg="http://www.w3.org/2000/svg">
  <defs
     id="defs2">
    <style
       id="style6738">.cls-1{fill:#fff;}.cls-2{fill:#409;}</style>
  </defs>
  <g
     id="layer1"
     transform="translate(-3.3495117,-3.3030777)">
    <g
       id="text5511"
       style="font-size:8.49239px;line-height:1.25;fill:#131e29;stroke-width:0.21231"
       aria-label="ResearchSoftwareEngineering">
      <path
         style="font-weight:bold;font-family:'Source Serif Pro';-inkscape-font-specification:'Source Serif Pro Bold'"
         d="m 135.70062,6.8434585 h -0.3397 q -0.008,0.5265281 -0.017,1.0530563 0,0.5180358 0,0.9936096 h 0.32271 q 0.42462,0 0.6624,-0.1443706 0.23779,-0.1443707 0.3397,-0.3821576 0.10191,-0.2377869 0.10191,-0.5095434 0,-1.0105943 -1.07004,-1.0105943 z m -2.41184,-0.03397 v -0.458589 h 2.76003 q 1.0021,0 1.53712,0.3736651 0.54351,0.3736652 0.54351,1.0360716 0,0.2802488 -0.14437,0.5604977 -0.14437,0.2717565 -0.47557,0.4840662 -0.33121,0.2038173 -0.9002,0.2972336 0.48407,0.059447 0.75583,0.2377869 0.27175,0.1698478 0.40763,0.4500967 0.13588,0.2717567 0.19533,0.6708987 l 0.16135,0.942656 0.64542,0.06794 V 11.9304 q -0.20382,0.04246 -0.33969,0.06794 -0.13588,0.03397 -0.27176,0.04246 -0.12739,0.0085 -0.32271,0.0085 -0.54351,0 -0.85773,-0.186832 -0.30573,-0.186833 -0.37367,-0.679391 l -0.15286,-0.985118 q -0.0594,-0.4246191 -0.24628,-0.6284364 -0.17834,-0.2038174 -0.5605,-0.2038174 h -0.30572 q 0,0.543513 0,1.0445638 0.008,0.501051 0.017,0.99361 l 0.66241,0.06794 V 11.9304 h -2.73455 v -0.458589 l 0.63693,-0.06794 q 0.017,-0.518036 0.017,-1.044564 0,-0.5265284 0,-1.0615489 V 8.9835407 q 0,-0.5265282 0,-1.0530563 0,-0.5350206 -0.017,-1.0530564 z m 7.71958,1.3248128 q -0.23778,0 -0.4416,0.2972336 -0.19533,0.2887413 -0.2208,1.0700411 h 0.72185 q 0.30573,0 0.40764,-0.1188934 0.1104,-0.1273859 0.1104,-0.4161271 0,-0.4246195 -0.16985,-0.6284368 -0.16985,-0.2038174 -0.40764,-0.2038174 z m 0.017,3.9234847 q -0.61995,0 -1.09552,-0.254772 -0.47557,-0.263264 -0.74733,-0.74733 -0.27176,-0.492559 -0.27176,-1.1719504 0,-0.7133608 0.31422,-1.197427 0.32271,-0.4925586 0.82376,-0.7388379 0.50105,-0.2547717 1.04457,-0.2547717 0.5605,0 0.95115,0.237787 0.39914,0.2377869 0.60296,0.6454216 0.20381,0.3991423 0.20381,0.9171781 0,0.2462793 -0.051,0.4500966 h -2.4543 q 0.0425,0.6708987 0.36517,0.9936097 0.3312,0.314219 0.77281,0.314219 0.34819,0 0.59447,-0.127386 0.24627,-0.135878 0.43311,-0.331203 l 0.29723,0.271756 q -0.26326,0.501051 -0.71336,0.74733 -0.4501,0.24628 -1.07004,0.24628 z m 3.7961,0 q -0.80678,0 -1.47768,-0.39065 l 0.0255,-1.036072 h 0.67939 l 0.14437,0.840747 q 0.15286,0.05945 0.30573,0.09342 0.15286,0.02548 0.3312,0.02548 0.36517,0 0.5605,-0.118893 0.19532,-0.127386 0.19532,-0.382158 0,-0.195325 -0.14437,-0.339695 -0.14437,-0.144371 -0.56899,-0.263264 l -0.45859,-0.135879 q -0.49256,-0.14437 -0.76431,-0.4670814 -0.26327,-0.3227108 -0.26327,-0.7982846 0,-0.5859749 0.45859,-0.9851173 0.45859,-0.4076347 1.31632,-0.4076347 0.37367,0 0.68789,0.093416 0.32271,0.084924 0.65391,0.2547717 l -0.0594,0.9256705 h -0.67939 l -0.16985,-0.7303455 q -0.17834,-0.067939 -0.46708,-0.067939 -0.28874,0 -0.46708,0.1188934 -0.16985,0.1188935 -0.16985,0.3566804 0,0.1698478 0.13588,0.305726 0.13588,0.1273859 0.57748,0.2632641 l 0.41613,0.1188935 q 0.60296,0.1783401 0.86622,0.5095433 0.26327,0.3312026 0.26327,0.8067766 0,0.670899 -0.51804,1.044564 -0.50954,0.365173 -1.40973,0.365173 z m 4.47548,-3.9234847 q -0.23778,0 -0.4416,0.2972336 -0.19532,0.2887413 -0.2208,1.0700411 h 0.72185 q 0.30573,0 0.40764,-0.1188934 0.1104,-0.1273859 0.1104,-0.4161271 0,-0.4246195 -0.16985,-0.6284368 -0.16985,-0.2038174 -0.40764,-0.2038174 z m 0.017,3.9234847 q -0.61994,0 -1.09552,-0.254772 -0.47557,-0.263264 -0.74733,-0.74733 -0.27176,-0.492559 -0.27176,-1.1719504 0,-0.7133608 0.31422,-1.197427 0.32271,-0.4925586 0.82376,-0.7388379 0.50106,-0.2547717 1.04457,-0.2547717 0.5605,0 0.95115,0.237787 0.39914,0.2377869 0.60296,0.6454216 0.20381,0.3991423 0.20381,0.9171781 0,0.2462793 -0.051,0.4500966 h -2.4543 q 0.0425,0.6708987 0.36517,0.9936097 0.3312,0.314219 0.77281,0.314219 0.34819,0 0.59447,-0.127386 0.24628,-0.135878 0.43311,-0.331203 l 0.29723,0.271756 q -0.26326,0.501051 -0.71336,0.74733 -0.4501,0.24628 -1.07004,0.24628 z m 5.56251,-0.0085 q -0.73884,0 -0.93416,-0.611452 -0.27176,0.288742 -0.52653,0.458589 -0.24628,0.161356 -0.68788,0.161356 -0.49256,0 -0.80678,-0.280249 -0.30573,-0.280249 -0.30573,-0.806777 0,-0.305726 0.13588,-0.552005 0.13588,-0.24628 0.49256,-0.4585899 0.35668,-0.2123098 1.0106,-0.3991423 0.12738,-0.042462 0.29723,-0.084924 0.16985,-0.042462 0.34819,-0.084924 V 9.1109265 q 0,-0.5689901 -0.14437,-0.7728074 -0.13588,-0.2038174 -0.54352,-0.2038174 -0.0594,0 -0.1104,0 -0.051,0 -0.11889,0.00849 l -0.0425,0.3736651 q -0.008,0.4161271 -0.19533,0.6029597 -0.17834,0.1868326 -0.42462,0.1868326 -0.46708,0 -0.56899,-0.4246195 0.034,-0.5265282 0.53502,-0.8577314 0.50105,-0.3312032 1.41823,-0.3312032 0.81527,0 1.16346,0.3736652 0.35668,0.3736651 0.35668,1.2313965 v 1.9022953 q 0,0.24628 0.18683,0.24628 0.0679,0 0.12739,-0.03397 0.0594,-0.04246 0.12738,-0.152863 l 0.2293,0.152863 q -0.15286,0.339696 -0.39914,0.492559 -0.23779,0.14437 -0.61995,0.14437 z m -2.0042,-1.299335 q 0,0.314218 0.14437,0.467081 0.15286,0.152863 0.36517,0.152863 0.0934,0 0.19533,-0.04246 0.10191,-0.04246 0.32271,-0.195325 V 9.7563481 q -0.1104,0.03397 -0.2208,0.076431 -0.10191,0.03397 -0.17834,0.067939 -0.28875,0.1188929 -0.45859,0.3396949 -0.16985,0.21231 -0.16985,0.509544 z m 3.21861,1.180442 v -0.399142 l 0.46709,-0.09342 q 0.008,-0.314218 0.008,-0.670898 0,-0.356681 0,-0.619945 V 9.6459471 q 0,-0.2377869 -0.008,-0.39065 0,-0.152863 -0.008,-0.2802488 0,-0.1358782 -0.008,-0.305726 L 156.0229,8.5928908 V 8.2616876 l 1.67301,-0.5689902 0.15286,0.093416 0.0764,1.002102 q 0.17834,-0.5435129 0.50105,-0.8152694 0.32271,-0.2802489 0.63693,-0.2802489 0.28025,0 0.48407,0.1613554 0.20381,0.1528631 0.25477,0.4670815 -0.008,0.3312032 -0.17834,0.5180358 -0.16985,0.1783401 -0.42462,0.1783401 -0.35668,0 -0.65392,-0.3991423 l -0.051,-0.067939 q -0.18683,0.1783402 -0.34819,0.4500967 -0.15286,0.2717564 -0.2208,0.5689901 v 0.5774826 q 0,0.263264 0,0.60296 0,0.339695 0.008,0.636929 l 0.6709,0.144371 V 11.9304 Z m 5.92769,0.127386 q -0.57748,0 -1.06155,-0.237787 -0.47557,-0.246279 -0.76431,-0.730346 -0.28874,-0.484066 -0.28874,-1.197427 0,-0.696376 0.30572,-1.1889346 0.31422,-0.4925586 0.83226,-0.7473303 0.52653,-0.2632641 1.15496,-0.2632641 0.4501,0 0.79829,0.1698478 0.34819,0.1698478 0.552,0.4500967 0.21231,0.2802489 0.23779,0.6199444 -0.13588,0.4416043 -0.57748,0.4416043 -0.24628,0 -0.43311,-0.1783402 -0.18684,-0.1783402 -0.21231,-0.6284368 l -0.0594,-0.4246195 q -0.034,-0.00849 -0.0764,-0.00849 -0.0425,0 -0.0849,0 -0.23778,0 -0.47557,0.1613554 -0.23779,0.1613554 -0.39065,0.5095434 -0.15286,0.348188 -0.15286,0.9256705 0,0.730345 0.32271,1.129488 0.3312,0.39065 0.86622,0.39065 0.30573,0 0.53502,-0.127386 0.2293,-0.135878 0.41613,-0.348188 l 0.29723,0.263264 q -0.24628,0.518036 -0.69637,0.772807 -0.44161,0.24628 -1.04457,0.24628 z m 2.03818,-0.127386 v -0.399142 l 0.45859,-0.101909 q 0.008,-0.305726 0.008,-0.662406 0,-0.356681 0,-0.619945 V 6.5886868 l -0.52653,-0.084924 V 6.1470825 l 1.75793,-0.3821575 0.13588,0.084924 -0.034,1.1889345 v 1.3672748 q 0.33969,-0.3991423 0.65391,-0.5520054 0.32271,-0.1613554 0.69638,-0.1613554 0.56049,0 0.90019,0.3651728 0.33969,0.3651728 0.33969,1.0955183 v 0.9936094 q 0,0.280249 0,0.636929 0,0.348188 0.008,0.662407 l 0.42462,0.08492 V 11.9304 h -2.2335 v -0.399142 l 0.4416,-0.09342 q 0.008,-0.314218 0.008,-0.662406 0,-0.35668 0,-0.628437 V 9.2552971 q 0,-0.416127 -0.1019,-0.5774825 -0.0934,-0.1613554 -0.35668,-0.1613554 -0.16985,0 -0.36518,0.1019087 -0.19532,0.1019087 -0.39065,0.2887413 v 1.2398888 q 0,0.263264 0,0.628437 0,0.35668 0.009,0.670899 l 0.39914,0.08492 V 11.9304 Z"
         id="path1" />
      <path
         style="font-weight:bold;font-family:'Source Serif Pro';-inkscape-font-specification:'Source Serif Pro Bold'"
         d="m 135.14012,22.937589 q -0.47557,0 -0.97663,-0.110401 -0.50105,-0.110401 -0.86622,-0.339696 l 0.051,-1.256873 h 0.78979 l 0.16985,1.044564 q 0.19532,0.07643 0.39065,0.118893 0.19532,0.03397 0.43311,0.03397 0.45859,0 0.69637,-0.229295 0.23779,-0.237787 0.23779,-0.577482 0,-0.339696 -0.17834,-0.526528 -0.16985,-0.186833 -0.55201,-0.356681 l -0.36517,-0.161355 q -0.74733,-0.348188 -1.16346,-0.772808 -0.40763,-0.424619 -0.40763,-1.129488 0,-0.764315 0.56899,-1.197426 0.57748,-0.441605 1.53712,-0.441605 0.45859,0 0.87472,0.118894 0.42462,0.110401 0.73034,0.314218 l -0.0679,1.188935 h -0.7813 l -0.16135,-1.002102 q -0.13588,-0.05095 -0.27176,-0.07643 -0.13588,-0.03397 -0.29723,-0.03397 -0.36517,0 -0.61995,0.212309 -0.25477,0.21231 -0.25477,0.560498 0,0.339696 0.19533,0.543513 0.20382,0.195325 0.57748,0.365173 l 0.39914,0.17834 q 0.80678,0.365173 1.16346,0.772807 0.36517,0.399143 0.36517,1.044564 0,0.747331 -0.56899,1.231397 -0.56049,0.484066 -1.64752,0.484066 z m 4.86614,-0.03397 q -0.6624,0 -1.14647,-0.271757 -0.48407,-0.280249 -0.74733,-0.772807 -0.26326,-0.501051 -0.26326,-1.154965 0,-0.653914 0.28024,-1.137981 0.28875,-0.484066 0.7813,-0.755822 0.49256,-0.271757 1.09552,-0.271757 0.60296,0 1.08703,0.263264 0.49256,0.263264 0.7813,0.755823 0.28874,0.484066 0.28874,1.146473 0,0.662406 -0.26327,1.154965 -0.26326,0.492558 -0.74733,0.772807 -0.48406,0.271757 -1.14647,0.271757 z m 0,-0.441605 q 0.35668,0 0.53502,-0.416127 0.17834,-0.416127 0.17834,-1.31632 0,-0.908686 -0.17834,-1.324813 -0.17834,-0.416127 -0.53502,-0.416127 -0.36517,0 -0.54351,0.416127 -0.17834,0.416127 -0.17834,1.324813 0,0.900193 0.17834,1.31632 0.17834,0.416127 0.54351,0.416127 z m 2.64963,0.314219 V 22.37709 l 0.46708,-0.09342 q 0.008,-0.322711 0.008,-0.645422 0.008,-0.32271 0.008,-0.645421 v -1.74094 h -0.55201 v -0.501051 l 0.56899,-0.06794 q 0.0679,-0.577483 0.22081,-0.925671 0.16135,-0.35668 0.43311,-0.636929 0.31422,-0.314218 0.70487,-0.450097 0.39914,-0.14437 0.76431,-0.14437 0.35668,0 0.64542,0.135878 0.28874,0.127386 0.37367,0.467082 -0.008,0.237786 -0.16985,0.407634 -0.15286,0.161356 -0.4416,0.161356 -0.21231,0 -0.39915,-0.144371 -0.18683,-0.144371 -0.36517,-0.458589 l -0.0679,-0.101909 q -0.22929,0.237787 -0.31422,0.628437 -0.0849,0.382158 -0.0679,1.053056 h 1.51165 l 0.4416,-1.197426 h 0.73884 l -0.017,1.197426 h 0.88321 v 0.577483 h -0.89171 v 2.377869 q 0,0.297234 0.1189,0.441604 0.12738,0.135879 0.31422,0.135879 0.2208,0 0.46708,-0.186833 l 0.20382,0.203817 q -0.16136,0.322711 -0.46709,0.501051 -0.30572,0.178341 -0.7728,0.178341 -0.57749,0 -0.9002,-0.271757 -0.32271,-0.280249 -0.32271,-0.908686 0,-0.220802 0,-0.407634 0.008,-0.195325 0.008,-0.441605 v -1.622046 h -1.29933 v 1.74094 q 0,0.314218 0,0.628437 0,0.305726 0.008,0.619944 l 0.65392,0.135878 v 0.399143 z m 10.69192,-3.728159 v -0.373666 h 1.54561 v 0.373666 l -0.47557,0.07643 -1.29934,3.668712 h -0.63692 l -0.97663,-2.734549 -0.96813,2.734549 h -0.63693 l -1.3418,-3.685697 -0.37366,-0.05945 v -0.373666 h 2.23349 v 0.373666 l -0.49255,0.06794 0.6624,2.182544 0.74733,-2.174052 -0.50105,-0.07643 v -0.373666 h 2.08064 v 0.373666 l -0.46708,0.07643 0.69637,2.114605 0.68789,-2.114605 z m 4.90011,3.847052 q -0.73884,0 -0.93416,-0.611452 -0.27176,0.288741 -0.52653,0.458589 -0.24628,0.161356 -0.68788,0.161356 -0.49256,0 -0.80678,-0.280249 -0.30573,-0.280249 -0.30573,-0.806777 0,-0.305726 0.13588,-0.552006 0.13588,-0.246279 0.49256,-0.458589 0.35668,-0.212309 1.01059,-0.399142 0.12739,-0.04246 0.29724,-0.08492 0.16985,-0.04246 0.34819,-0.08492 V 19.95676 q 0,-0.56899 -0.14437,-0.772807 -0.13588,-0.203818 -0.54352,-0.203818 -0.0594,0 -0.1104,0 -0.051,0 -0.11889,0.0085 l -0.0425,0.373665 q -0.008,0.416127 -0.19533,0.60296 -0.17834,0.186832 -0.42462,0.186832 -0.46708,0 -0.56899,-0.424619 0.034,-0.526528 0.53502,-0.857732 0.50105,-0.331203 1.41823,-0.331203 0.81527,0 1.16346,0.373665 0.35668,0.373666 0.35668,1.231397 v 1.902295 q 0,0.246279 0.18683,0.246279 0.0679,0 0.12739,-0.03397 0.0594,-0.04246 0.12738,-0.152863 l 0.2293,0.152863 q -0.15287,0.339695 -0.39914,0.492559 -0.23779,0.14437 -0.61995,0.14437 z m -2.0042,-1.299335 q 0,0.314218 0.14437,0.467081 0.15286,0.152863 0.36517,0.152863 0.0934,0 0.19533,-0.04246 0.1019,-0.04246 0.32271,-0.195325 v -1.375767 q -0.1104,0.03397 -0.22081,0.07643 -0.1019,0.03397 -0.17834,0.06794 -0.28874,0.118893 -0.45859,0.339695 -0.16984,0.21231 -0.16984,0.509544 z m 3.21861,1.180442 V 22.37709 l 0.46709,-0.09342 q 0.008,-0.314218 0.008,-0.670899 0,-0.35668 0,-0.619944 v -0.501051 q 0,-0.237787 -0.008,-0.39065 0,-0.152863 -0.008,-0.280249 0,-0.135878 -0.008,-0.305726 l -0.51803,-0.07643 v -0.331204 l 1.673,-0.56899 0.15286,0.09342 0.0764,1.002101 q 0.17834,-0.543512 0.50105,-0.815269 0.32271,-0.280249 0.63693,-0.280249 0.28025,0 0.48407,0.161356 0.20381,0.152863 0.25477,0.467081 -0.008,0.331203 -0.17834,0.518036 -0.16985,0.17834 -0.42462,0.17834 -0.35668,0 -0.65392,-0.399142 l -0.051,-0.06794 q -0.18683,0.17834 -0.34819,0.450096 -0.15286,0.271757 -0.2208,0.56899 v 0.577483 q 0,0.263264 0,0.60296 0,0.339695 0.008,0.636929 l 0.6709,0.14437 v 0.399143 z m 5.9192,-3.796099 q -0.23779,0 -0.4416,0.297234 -0.19533,0.288741 -0.22081,1.070041 h 0.72186 q 0.30572,0 0.40763,-0.118893 0.1104,-0.127386 0.1104,-0.416127 0,-0.42462 -0.16985,-0.628437 -0.16984,-0.203818 -0.40763,-0.203818 z m 0.017,3.923485 q -0.61994,0 -1.09551,-0.254772 -0.47558,-0.263264 -0.74733,-0.74733 -0.27176,-0.492559 -0.27176,-1.17195 0,-0.713361 0.31422,-1.197427 0.32271,-0.492559 0.82376,-0.738838 0.50105,-0.254772 1.04456,-0.254772 0.5605,0 0.95115,0.237787 0.39914,0.237787 0.60296,0.645422 0.20382,0.399142 0.20382,0.917178 0,0.246279 -0.051,0.450096 h -2.4543 q 0.0425,0.670899 0.36518,0.99361 0.3312,0.314218 0.7728,0.314218 0.34819,0 0.59447,-0.127385 0.24628,-0.135879 0.43311,-0.331204 l 0.29724,0.271757 q -0.26327,0.501051 -0.71336,0.74733 -0.4501,0.24628 -1.07005,0.24628 z"
         id="path2" />
      <path
         style="font-weight:bold;font-family:'Source Serif Pro';-inkscape-font-specification:'Source Serif Pro Bold'"
         d="m 133.28878,28.501158 v -0.458589 h 4.33112 l 0.0594,1.460691 h -0.70486 l -0.16985,-0.985117 h -1.41823 q -0.008,0.484066 -0.017,0.976625 0,0.492559 0,0.99361 h 0.91718 l 0.10191,-0.662407 h 0.49256 v 1.825864 h -0.49256 l -0.10191,-0.662406 h -0.91718 q 0,0.585974 0,1.112503 0.009,0.526528 0.017,1.044564 h 1.58808 l 0.16984,-0.985118 h 0.70487 l -0.0594,1.460691 h -4.50097 V 33.16348 l 0.63693,-0.06794 q 0.017,-0.518036 0.017,-1.044564 0,-0.526528 0,-1.061548 V 30.67521 q 0,-0.526528 0,-1.053056 0,-0.535021 -0.017,-1.053057 z m 5.0105,5.120911 v -0.399142 l 0.45859,-0.101909 q 0.008,-0.305726 0.008,-0.662406 0,-0.35668 0,-0.619944 v -0.492559 q 0,-0.348188 -0.008,-0.535021 0,-0.195325 -0.017,-0.450096 l -0.51804,-0.07643 v -0.331203 l 1.673,-0.56899 0.15286,0.09342 0.051,0.611452 q 0.3312,-0.39065 0.65391,-0.543513 0.33121,-0.161355 0.70487,-0.161355 0.55201,0 0.88321,0.365173 0.3397,0.365172 0.3397,1.095518 v 0.99361 q 0,0.280248 0,0.636929 0,0.348188 0.008,0.662406 l 0.42462,0.08492 v 0.399142 h -2.24199 v -0.399142 l 0.4416,-0.09342 q 0.008,-0.314219 0.008,-0.662407 0,-0.35668 0,-0.628436 v -0.891701 q 0,-0.407635 -0.1104,-0.56899 -0.1104,-0.169848 -0.35668,-0.169848 -0.3312,0 -0.73034,0.305726 v 1.324813 q 0,0.263264 0,0.628436 0,0.356681 0.008,0.670899 l 0.39914,0.08492 v 0.399142 z m 7.07416,-1.902295 q 0.29723,0 0.4416,-0.263264 0.15286,-0.263264 0.15286,-0.713361 0,-0.450096 -0.15286,-0.696376 -0.14437,-0.254771 -0.42462,-0.254771 -0.28874,0 -0.43311,0.254771 -0.14437,0.254772 -0.14437,0.704869 0,0.450096 0.13588,0.71336 0.13588,0.254772 0.42462,0.254772 z m -1.12949,2.607164 q 0,0.373665 0.28025,0.543513 0.28025,0.17834 0.85773,0.17834 0.63693,0 0.95964,-0.186833 0.32271,-0.186832 0.32271,-0.467081 0,-0.186833 -0.13588,-0.339696 -0.13588,-0.14437 -0.48406,-0.14437 h -0.89171 q -0.46708,0 -0.7728,-0.07643 -0.0679,0.118894 -0.10191,0.229295 -0.034,0.110401 -0.034,0.263264 z m 1.13798,-2.208022 q -0.44161,0 -0.77281,-0.101908 -0.10191,0.17834 -0.10191,0.39065 0,0.14437 0.1104,0.237787 0.1104,0.08492 0.38216,0.08492 h 0.99361 q 0.64542,0 1.02758,0.161356 0.38216,0.152863 0.54351,0.433112 0.16985,0.271756 0.16985,0.645421 0,0.42462 -0.28025,0.7813 -0.28025,0.365173 -0.84074,0.577483 -0.55201,0.220802 -1.36728,0.220802 -0.70487,0 -1.10401,-0.144371 -0.39914,-0.135878 -0.5605,-0.365173 -0.16135,-0.229294 -0.16135,-0.484066 0,-0.543513 0.70487,-0.874716 -0.26327,-0.110401 -0.38216,-0.288741 -0.1104,-0.17834 -0.1104,-0.39065 0,-0.297234 0.16984,-0.560498 0.17834,-0.271756 0.49256,-0.543513 -0.34819,-0.17834 -0.51803,-0.475574 -0.16985,-0.297233 -0.16985,-0.662406 0,-0.594467 0.43311,-0.985117 0.44161,-0.39065 1.3418,-0.39065 0.45859,0 0.79828,0.101909 0.3397,0.101908 0.55201,0.288741 l 0.95115,-0.407635 0.13587,0.08492 v 0.653914 h -0.80677 q 0.15286,0.280249 0.15286,0.653914 0,0.56899 -0.4416,0.968132 -0.43312,0.39065 -1.3418,0.39065 z m 2.77701,1.503153 v -0.399142 l 0.45858,-0.101909 q 0.008,-0.305726 0.008,-0.662406 0,-0.35668 0,-0.619944 v -0.407635 q 0,-0.348188 -0.008,-0.577483 0,-0.237787 -0.017,-0.492558 l -0.52653,-0.07643 v -0.331203 l 1.7834,-0.56899 0.14437,0.09342 -0.0255,1.231397 v 1.129488 q 0,0.263264 0,0.628436 0,0.356681 0.008,0.670899 l 0.42462,0.08492 v 0.399142 z m 1.12948,-4.866139 q -0.29723,0 -0.50954,-0.186833 -0.21231,-0.195324 -0.21231,-0.484066 0,-0.297233 0.21231,-0.484066 0.21231,-0.195325 0.50954,-0.195325 0.29724,0 0.50955,0.195325 0.21231,0.186833 0.21231,0.484066 0,0.288742 -0.21231,0.484066 -0.21231,0.186833 -0.50955,0.186833 z m 1.53712,4.866139 v -0.399142 l 0.45859,-0.101909 q 0.008,-0.305726 0.008,-0.662406 0,-0.35668 0,-0.619944 v -0.492559 q 0,-0.348188 -0.008,-0.535021 0,-0.195325 -0.017,-0.450096 l -0.51804,-0.07643 v -0.331203 l 1.673,-0.56899 0.15287,0.09342 0.051,0.611452 q 0.3312,-0.39065 0.65391,-0.543513 0.33121,-0.161355 0.70487,-0.161355 0.55201,0 0.88321,0.365173 0.3397,0.365172 0.3397,1.095518 v 0.99361 q 0,0.280248 0,0.636929 0,0.348188 0.008,0.662406 l 0.42462,0.08492 v 0.399142 h -2.24199 v -0.399142 l 0.4416,-0.09342 q 0.008,-0.314219 0.008,-0.662407 0,-0.35668 0,-0.628436 v -0.891701 q 0,-0.407635 -0.1104,-0.56899 -0.1104,-0.169848 -0.35668,-0.169848 -0.3312,0 -0.73034,0.305726 v 1.324813 q 0,0.263264 0,0.628436 0,0.356681 0.008,0.670899 l 0.39914,0.08492 v 0.399142 z m 7.33742,-3.796098 q -0.23778,0 -0.4416,0.297234 -0.19533,0.288741 -0.2208,1.070041 h 0.72185 q 0.30573,0 0.40763,-0.118894 0.11041,-0.127385 0.11041,-0.416127 0,-0.424619 -0.16985,-0.628436 -0.16985,-0.203818 -0.40764,-0.203818 z m 0.017,3.923484 q -0.61995,0 -1.09552,-0.254771 -0.47557,-0.263265 -0.74733,-0.747331 -0.27176,-0.492558 -0.27176,-1.17195 0,-0.71336 0.31422,-1.197426 0.32271,-0.492559 0.82376,-0.738838 0.50105,-0.254772 1.04457,-0.254772 0.56049,0 0.95114,0.237787 0.39915,0.237787 0.60296,0.645421 0.20382,0.399143 0.20382,0.917179 0,0.246279 -0.051,0.450096 h -2.4543 q 0.0425,0.670899 0.36517,0.99361 0.3312,0.314218 0.77281,0.314218 0.34818,0 0.59446,-0.127386 0.24628,-0.135878 0.43312,-0.331203 l 0.29723,0.271757 q -0.26326,0.501051 -0.71336,0.74733 -0.4501,0.246279 -1.07004,0.246279 z m 4.40755,-3.923484 q -0.23779,0 -0.44161,0.297234 -0.19532,0.288741 -0.2208,1.070041 h 0.72185 q 0.30573,0 0.40764,-0.118894 0.1104,-0.127385 0.1104,-0.416127 0,-0.424619 -0.16985,-0.628436 -0.16985,-0.203818 -0.40763,-0.203818 z m 0.017,3.923484 q -0.61994,0 -1.09552,-0.254771 -0.47557,-0.263265 -0.74733,-0.747331 -0.27175,-0.492558 -0.27175,-1.17195 0,-0.71336 0.31421,-1.197426 0.32272,-0.492559 0.82377,-0.738838 0.50105,-0.254772 1.04456,-0.254772 0.5605,0 0.95115,0.237787 0.39914,0.237787 0.60296,0.645421 0.20382,0.399143 0.20382,0.917179 0,0.246279 -0.051,0.450096 h -2.4543 q 0.0425,0.670899 0.36517,0.99361 0.33121,0.314218 0.77281,0.314218 0.34819,0 0.59447,-0.127386 0.24628,-0.135878 0.43311,-0.331203 l 0.29723,0.271757 q -0.26326,0.501051 -0.71336,0.74733 -0.45009,0.246279 -1.07004,0.246279 z m 2.29295,-0.127386 v -0.399142 l 0.46708,-0.09342 q 0.008,-0.314219 0.008,-0.670899 0,-0.35668 0,-0.619944 v -0.501051 q 0,-0.237787 -0.008,-0.39065 0,-0.152863 -0.008,-0.280249 0,-0.135878 -0.008,-0.305726 l -0.51803,-0.07643 v -0.331203 l 1.673,-0.56899 0.15286,0.09342 0.0764,1.002102 q 0.17834,-0.543513 0.50105,-0.815269 0.32272,-0.280249 0.63693,-0.280249 0.28025,0 0.48407,0.161355 0.20382,0.152863 0.25477,0.467082 -0.008,0.331203 -0.17834,0.518036 -0.16985,0.17834 -0.42462,0.17834 -0.35668,0 -0.65391,-0.399143 l -0.051,-0.06794 q -0.18683,0.17834 -0.34818,0.450097 -0.15287,0.271756 -0.22081,0.56899 v 0.577483 q 0,0.263264 0,0.602959 0,0.339696 0.009,0.636929 l 0.67089,0.144371 v 0.399142 z m 3.97444,0 v -0.399142 l 0.45859,-0.101909 q 0.008,-0.305726 0.008,-0.662406 0,-0.35668 0,-0.619944 v -0.407635 q 0,-0.348188 -0.008,-0.577483 0,-0.237787 -0.017,-0.492558 l -0.52653,-0.07643 v -0.331203 l 1.78341,-0.56899 0.14437,0.09342 -0.0255,1.231397 v 1.129488 q 0,0.263264 0,0.628436 0,0.356681 0.008,0.670899 l 0.42462,0.08492 v 0.399142 z m 1.12949,-4.866139 q -0.29724,0 -0.50955,-0.186833 -0.21231,-0.195324 -0.21231,-0.484066 0,-0.297233 0.21231,-0.484066 0.21231,-0.195325 0.50955,-0.195325 0.29723,0 0.50954,0.195325 0.21231,0.186833 0.21231,0.484066 0,0.288742 -0.21231,0.484066 -0.21231,0.186833 -0.50954,0.186833 z m 1.53712,4.866139 v -0.399142 l 0.45859,-0.101909 q 0.008,-0.305726 0.008,-0.662406 0,-0.35668 0,-0.619944 v -0.492559 q 0,-0.348188 -0.008,-0.535021 0,-0.195325 -0.017,-0.450096 l -0.51803,-0.07643 v -0.331203 l 1.673,-0.56899 0.15286,0.09342 0.051,0.611452 q 0.33121,-0.39065 0.65392,-0.543513 0.3312,-0.161355 0.70487,-0.161355 0.552,0 0.8832,0.365173 0.3397,0.365172 0.3397,1.095518 v 0.99361 q 0,0.280248 0,0.636929 0,0.348188 0.008,0.662406 l 0.42462,0.08492 v 0.399142 h -2.24199 v -0.399142 l 0.4416,-0.09342 q 0.008,-0.314219 0.008,-0.662407 0,-0.35668 0,-0.628436 v -0.891701 q 0,-0.407635 -0.1104,-0.56899 -0.1104,-0.169848 -0.35668,-0.169848 -0.33121,0 -0.73035,0.305726 v 1.324813 q 0,0.263264 0,0.628436 0,0.356681 0.008,0.670899 l 0.39915,0.08492 v 0.399142 z m 7.07415,-1.902295 q 0.29723,0 0.4416,-0.263264 0.15287,-0.263264 0.15287,-0.713361 0,-0.450096 -0.15287,-0.696376 -0.14437,-0.254771 -0.42462,-0.254771 -0.28874,0 -0.43311,0.254771 -0.14437,0.254772 -0.14437,0.704869 0,0.450096 0.13588,0.71336 0.13588,0.254772 0.42462,0.254772 z m -1.12949,2.607164 q 0,0.373665 0.28025,0.543513 0.28025,0.17834 0.85773,0.17834 0.63693,0 0.95964,-0.186833 0.32271,-0.186832 0.32271,-0.467081 0,-0.186833 -0.13588,-0.339696 -0.13587,-0.14437 -0.48406,-0.14437 h -0.8917 q -0.46708,0 -0.77281,-0.07643 -0.0679,0.118894 -0.10191,0.229295 -0.034,0.110401 -0.034,0.263264 z m 1.13798,-2.208022 q -0.4416,0 -0.77281,-0.101908 -0.1019,0.17834 -0.1019,0.39065 0,0.14437 0.1104,0.237787 0.1104,0.08492 0.38215,0.08492 h 0.99361 q 0.64543,0 1.02758,0.161356 0.38216,0.152863 0.54352,0.433112 0.16984,0.271756 0.16984,0.645421 0,0.42462 -0.28025,0.7813 -0.28024,0.365173 -0.84074,0.577483 -0.55201,0.220802 -1.36728,0.220802 -0.70486,0 -1.10401,-0.144371 -0.39914,-0.135878 -0.56049,-0.365173 -0.16136,-0.229294 -0.16136,-0.484066 0,-0.543513 0.70487,-0.874716 -0.26327,-0.110401 -0.38216,-0.288741 -0.1104,-0.17834 -0.1104,-0.39065 0,-0.297234 0.16985,-0.560498 0.17834,-0.271756 0.49256,-0.543513 -0.34819,-0.17834 -0.51804,-0.475574 -0.16985,-0.297233 -0.16985,-0.662406 0,-0.594467 0.43311,-0.985117 0.44161,-0.39065 1.3418,-0.39065 0.45859,0 0.79829,0.101909 0.33969,0.101908 0.552,0.288741 l 0.95115,-0.407635 0.13588,0.08492 v 0.653914 h -0.80678 q 0.15286,0.280249 0.15286,0.653914 0,0.56899 -0.4416,0.968132 -0.43311,0.39065 -1.3418,0.39065 z"
         id="path3" />
    </g>
    <g
       id="g6908"
       transform="matrix(0.26458333,0,0,0.26458333,3.3495117,3.3030777)">
      <path
         class="cls-2"
         d="M 53.64,0 C 35.05,0 17.07,2.54 0,7.3 v 45.66 c 0,10.16 1.4,19.55 4.17,27.9 2.58,7.78 6.42,14.91 11.42,21.18 8.65,10.85 20.87,19.46 37.34,26.34 l 0.72,0.3 0.72,-0.3 c 16.47,-6.88 28.69,-15.5 37.34,-26.34 5,-6.27 8.84,-13.39 11.42,-21.18 2.77,-8.35 4.17,-17.74 4.17,-27.9 V 7.3 C 90.23,2.54 72.24,0 53.64,0 Z"
         id="path6742" />
      <path
         class="cls-1"
         d="m 28.12,78.05 v -1.74 l -3.41,2.48 -1.14,-1.57 h -0.01 c -2.24,2.28 -4.22,4.81 -5.87,7.53 l -0.02,0.03 h 0.04 c 3.1,-0.74 6.12,-1.84 8.97,-3.27 h 0.02 c 0,0 -1.14,-1.58 -1.14,-1.58 l 2.59,-1.88 z"
         id="path6744" />
      <polygon
         class="cls-1"
         points="80.91,41.62 88.3,37.3 84.94,36.77 87.37,35.01 86.54,33.87 84.12,35.63 84.65,32.27 78.25,37.97 77.91,40.14 70.37,45.62 72.76,45.62 78.74,41.28 "
         id="polygon6746" />
      <path
         class="cls-1"
         d="m 53.65,82.33 c 0,0 0,0 0,0 -0.68,0 -1.35,-0.1 -1.99,-0.29 L 35.32,93.91 34.18,92.34 h -0.01 c -2.24,2.28 -4.22,4.81 -5.87,7.53 l -0.02,0.03 h 0.04 c 3.1,-0.74 6.12,-1.84 8.97,-3.27 h 0.02 c 0,0 -1.14,-1.58 -1.14,-1.58 L 53.68,82.33 Z"
         id="path6748" />
      <polygon
         class="cls-1"
         points="91.51,56.74 98.91,52.42 95.55,51.89 97.97,50.13 97.14,48.99 94.72,50.75 95.25,47.39 88.86,53.09 88.51,55.26 79.17,62.05 79.17,63.79 89.34,56.4 "
         id="polygon6750" />
      <path
         class="cls-1"
         d="m 42.41,79.08 h -2.39 l -10.01,7.27 -1.14,-1.57 h -0.01 c -2.24,2.28 -4.22,4.81 -5.87,7.53 l -0.02,0.03 h 0.04 c 3.1,-0.74 6.12,-1.84 8.97,-3.27 H 32 c 0,0 -1.14,-1.58 -1.14,-1.58 l 11.58,-8.41 z"
         id="path6752" />
      <polygon
         class="cls-1"
         points="86.21,49.18 93.6,44.86 90.25,44.33 92.67,42.57 91.84,41.43 89.42,43.19 89.95,39.83 83.55,45.53 83.21,47.7 79.17,50.64 79.17,52.37 84.04,48.84 "
         id="polygon6754" />
      <path
         class="cls-1"
         d="m 73.94,11.64 c 0,0 -0.29,-0.04 -0.73,-0.05 0,0 0,0 0,0 -1.03,-0.02 -2.92,0.14 -4.18,1.37 -0.47,0.46 -0.62,1.09 -0.62,1.69 0,0 0,0 0,0 0,0.05 0,0.11 0,0.16 0,0.03 0,0.07 0,0.1 0,0.02 0,0.03 0,0.05 0,0.05 0,0.1 0.01,0.14 0,0 0,0 0,0 0.01,0.11 0.03,0.23 0.05,0.33 -0.18,-0.2 -0.41,-0.36 -0.68,-0.48 -2.1,-0.87 -4.41,0.25 -4.41,0.25 0,0 0.54,2.62 2.93,3.31 0.58,0.17 1.15,0.08 1.64,-0.08 l -0.5,0.89 c -0.64,1.14 -1.93,1.75 -3.22,1.52 -1.65,-0.3 -2.75,-1.9 -2.45,-3.55 L 61.09,17.16 60.4,17.03 c -0.15,0.8 -0.6,1.5 -1.27,1.96 -0.67,0.46 -1.48,0.64 -2.28,0.49 -1.45,-0.27 -2.5,-1.53 -2.5,-3 v -1.9 c 0.41,0.45 0.99,0.88 1.74,0.88 2.28,0 3.98,-1.93 3.98,-1.93 0,0 -1.71,-1.93 -3.98,-1.93 -0.28,0 -0.53,0.06 -0.76,0.16 0.45,-0.43 0.81,-0.99 0.81,-1.66 0,-2.54 -2.49,-4.44 -2.49,-4.44 0,0 -2.49,1.9 -2.49,4.44 0,0.68 0.36,1.23 0.81,1.66 -0.23,-0.1 -0.48,-0.16 -0.76,-0.16 -2.28,0 -3.98,1.93 -3.98,1.93 0,0 1.71,1.93 3.98,1.93 0.75,0 1.33,-0.43 1.74,-0.88 v 1.9 c 0,1.47 -1.05,2.73 -2.5,3 -0.8,0.15 -1.61,-0.03 -2.28,-0.49 -0.67,-0.46 -1.12,-1.16 -1.27,-1.96 l -0.69,0.13 -0.69,0.13 c 0.3,1.65 -0.79,3.24 -2.45,3.55 -1.29,0.24 -2.58,-0.37 -3.22,-1.52 l -0.5,-0.89 c 0.48,0.16 1.06,0.25 1.64,0.08 2.39,-0.68 2.93,-3.31 2.93,-3.31 0,0 -2.31,-1.12 -4.41,-0.25 -0.27,0.11 -0.5,0.28 -0.68,0.48 0.02,-0.11 0.03,-0.22 0.05,-0.33 0,0 0,0 0,0 0,-0.05 0,-0.1 0.01,-0.14 0,-0.02 0,-0.03 0,-0.05 0,-0.03 0,-0.07 0,-0.1 0,-0.05 0,-0.11 0,-0.16 0,0 0,0 0,0 0,-0.61 -0.15,-1.23 -0.62,-1.69 -1.27,-1.24 -3.15,-1.39 -4.18,-1.37 0,0 0,0 0,0 -0.45,0 -0.73,0.05 -0.73,0.05 0,0 -0.06,0.5 -0.02,1.2 1.25,1.34 2.37,2.76 3.36,4.26 1.37,2.07 2.5,4.29 3.36,6.61 l 2.71,1.56 -1.48,2.57 c 0.24,1.06 0.42,2.15 0.56,3.24 v 0 c 0,0 0.04,0 0.06,0.01 v 0 c 0,0 0,0 0,0 3.83,0.78 7.75,1.18 11.73,1.18 v 0 c 0,0 0.01,0 0.02,0 0.01,0 0.01,0 0.02,0 v 0 c 3.98,0 7.9,-0.4 11.73,-1.18 0,0 0,0 0,0 v 0 c 0,0 0.04,0 0.06,-0.01 v 0 c 0.13,-1.09 0.32,-2.18 0.56,-3.24 l -1.48,-2.57 2.71,-1.56 c 0.86,-2.32 1.98,-4.54 3.36,-6.61 0.99,-1.5 2.12,-2.92 3.36,-4.26 0.04,-0.71 -0.02,-1.2 -0.02,-1.2 z M 60.4,22.53 c 0.97,0 1.76,0.79 1.76,1.76 0,0.97 -0.79,1.76 -1.76,1.76 -0.97,0 -1.76,-0.79 -1.76,-1.76 0,-0.97 0.79,-1.76 1.76,-1.76 z m -6.76,-1.83 2.49,2.49 -2.49,2.49 -2.49,-2.49 z m -6.77,1.83 c 0.97,0 1.76,0.79 1.76,1.76 0,0.97 -0.79,1.76 -1.76,1.76 -0.97,0 -1.76,-0.79 -1.76,-1.76 0,-0.97 0.79,-1.76 1.76,-1.76 z m 17.31,7.38 c -3.45,0.64 -6.97,0.97 -10.53,0.97 -3.56,0 -7.08,-0.32 -10.53,-0.96 -0.03,-0.2 -0.06,-0.39 -0.09,-0.58 3.48,-0.65 7.02,-0.98 10.62,-0.98 3.6,0 7.15,0.33 10.63,0.98 -0.03,0.19 -0.06,0.39 -0.09,0.58 z"
         id="path6756" />
      <polygon
         class="cls-1"
         points="75.61,34.06 73.43,33.72 53.65,48.1 33.86,33.72 31.69,34.06 24.29,29.74 27.65,29.21 25.23,27.45 26.05,26.31 28.48,28.07 27.95,24.71 34.34,30.41 34.69,32.58 53.65,46.36 72.61,32.58 72.95,30.41 79.35,24.71 78.82,28.07 81.24,26.31 82.07,27.45 79.64,29.21 83,29.74 "
         id="polygon6758" />
      <path
         class="cls-1"
         d="m 75.63,49.61 0.03,25.95 H 57.23 L 57.1,76.1 c -0.39,1.6 -1.8,2.71 -3.45,2.71 C 52,78.81 50.59,77.7 50.2,76.1 L 50.07,75.56 H 31.64 L 31.67,49.61 H 30.24 V 76.97 H 49 c 0.71,1.94 2.55,3.25 4.65,3.25 2.1,0 3.95,-1.31 4.65,-3.25 H 77.06 V 49.61 Z"
         id="path6760" />
      <path
         class="cls-1"
         d="M 89.62,84.75 C 87.97,82.03 85.99,79.5 83.75,77.23 h -0.01 c 0,0 -1.14,1.56 -1.14,1.56 l -3.41,-2.48 v 1.74 l 2.59,1.88 -1.14,1.57 h 0.02 c 2.85,1.44 5.87,2.54 8.97,3.27 h 0.04 c 0,0 -0.02,-0.02 -0.02,-0.02 z"
         id="path6762" />
      <polygon
         class="cls-1"
         points="26.39,41.62 28.56,41.28 34.53,45.62 36.93,45.62 29.38,40.14 29.04,37.97 22.64,32.27 23.18,35.63 20.75,33.87 19.93,35.01 22.35,36.77 18.99,37.3 "
         id="polygon6764" />
      <polygon
         class="cls-1"
         points="23.26,48.84 28.12,52.37 28.12,50.64 24.08,47.7 23.74,45.53 17.34,39.83 17.88,43.19 15.45,41.43 14.63,42.57 17.05,44.33 13.69,44.86 21.08,49.18 "
         id="polygon6766" />
      <path
         class="cls-1"
         d="m 84.31,92.31 c -1.65,-2.72 -3.63,-5.25 -5.87,-7.52 h -0.01 c 0,0 -1.14,1.56 -1.14,1.56 L 67.28,79.08 h -2.39 l 11.58,8.41 -1.14,1.57 h 0.02 c 2.85,1.44 5.87,2.54 8.97,3.27 h 0.04 c 0,0 -0.02,-0.02 -0.02,-0.02 z"
         id="path6768" />
      <polygon
         class="cls-1"
         points="17.96,56.4 28.12,63.79 28.12,62.05 18.78,55.26 18.44,53.09 12.04,47.39 12.57,50.75 10.15,48.99 9.32,50.13 11.75,51.89 8.39,52.42 15.78,56.74 "
         id="polygon6770" />
      <path
         class="cls-1"
         d="m 73.14,92.35 h -0.01 c 0,0 -1.14,1.56 -1.14,1.56 L 55.65,82.04 c -0.64,0.19 -1.32,0.29 -1.99,0.29 0,0 0,0 0,0 l 17.51,12.72 -1.14,1.57 h 0.02 c 2.85,1.44 5.87,2.54 8.97,3.27 h 0.04 c 0,0 -0.02,-0.02 -0.02,-0.02 -1.65,-2.72 -3.63,-5.25 -5.87,-7.52 z"
         id="path6772" />
      <path
         class="cls-1"
         d="M 28.12,66.64 V 64.9 l -8.71,6.33 -1.14,-1.57 h -0.01 c -2.24,2.28 -4.22,4.81 -5.87,7.53 l -0.02,0.03 h 0.04 c 3.1,-0.74 6.12,-1.84 8.97,-3.27 h 0.02 c 0,0 -1.14,-1.58 -1.14,-1.58 l 7.89,-5.73 z"
         id="path6774" />
      <path
         class="cls-1"
         d="m 94.92,77.2 c -1.65,-2.72 -3.63,-5.25 -5.87,-7.52 h -0.01 c 0,0 -1.14,1.56 -1.14,1.56 l -8.71,-6.33 v 1.74 l 7.89,5.73 -1.14,1.57 h 0.02 c 2.85,1.44 5.87,2.54 8.97,3.27 h 0.04 c 0,0 -0.02,-0.02 -0.02,-0.02 z"
         id="path6776" />
      <path
         class="cls-1"
         d="m 63.15,111.09 c 0.22,-0.68 0.88,-2.7 1.1,-3.38 0.39,-1.21 -0.27,-2.52 -1.48,-2.91 l -3.19,-0.58 2.24,-2.35 c 0.75,-1.03 0.52,-2.48 -0.51,-3.23 -0.58,-0.42 -2.3,-1.67 -2.88,-2.09 -0.41,-0.3 -0.89,-0.44 -1.36,-0.44 -0.71,0 -1.42,0.33 -1.87,0.95 l -1.54,2.86 -1.54,-2.86 c -0.45,-0.62 -1.16,-0.95 -1.87,-0.95 -0.47,0 -0.95,0.14 -1.36,0.44 -0.58,0.42 -2.3,1.67 -2.88,2.09 -1.03,0.75 -1.26,2.2 -0.51,3.23 l 2.24,2.35 -3.19,0.58 c -1.21,0.39 -1.88,1.7 -1.48,2.91 0.22,0.68 0.88,2.7 1.1,3.38 0.32,0.98 1.22,1.6 2.2,1.6 0.24,0 0.48,-0.04 0.71,-0.11 l 2.92,-1.41 -0.43,3.22 c 0,1.28 1.03,2.31 2.31,2.31 h 3.55 c 1.28,0 2.31,-1.03 2.31,-2.31 l -0.43,-3.22 2.92,1.41 c 0.24,0.08 0.48,0.11 0.71,0.11 0.97,0 1.88,-0.62 2.2,-1.6 z m -7.23,-2.18 c -0.08,0 -0.17,0 -0.25,0 -0.4,1.58 -2.01,3.17 -2.01,3.17 0,0 -1.61,-1.58 -2.01,-3.17 -0.08,0 -0.17,0 -0.25,0 -1.58,0 -3.38,-0.94 -3.38,-0.94 0,0 1.01,-2.02 2.39,-2.89 -0.61,-1.52 -0.24,-3.74 -0.24,-3.74 0,0 2.23,0.34 3.49,1.38 1.25,-1.05 3.49,-1.38 3.49,-1.38 0,0 0.37,2.23 -0.24,3.74 1.38,0.87 2.39,2.89 2.39,2.89 0,0 -1.81,0.94 -3.38,0.94 z"
         id="path6778" />
      <circle
         class="cls-1"
         cx="53.66"
         cy="106.14"
         r="1.52"
         id="circle6780" />
      <path
         class="cls-1"
         d="m 44.07,103.31 0.1,-0.03 0.1,-0.02 0.34,-0.06 -0.24,-0.25 -0.07,-0.08 -0.06,-0.09 c -0.36,-0.5 -0.59,-1.06 -0.69,-1.65 -1.12,0.28 -2.04,0.75 -2.09,0.78 l -0.3,0.16 0.15,0.31 c 0.03,0.07 0.5,0.99 1.24,1.86 0.42,-0.41 0.93,-0.74 1.53,-0.93 z"
         id="path6782" />
      <path
         class="cls-1"
         d="m 53.38,96.14 0.06,0.09 0.05,0.09 0.16,0.3 0.16,-0.3 0.05,-0.09 0.06,-0.09 c 0.36,-0.49 0.83,-0.89 1.36,-1.16 -0.61,-0.97 -1.34,-1.7 -1.39,-1.75 l -0.24,-0.24 -0.24,0.24 c -0.05,0.05 -0.78,0.78 -1.39,1.75 0.53,0.27 1,0.67 1.36,1.16 z"
         id="path6784" />
      <path
         class="cls-1"
         d="m 65.86,101.92 c -0.05,-0.03 -0.98,-0.5 -2.1,-0.78 -0.09,0.58 -0.32,1.15 -0.69,1.65 l -0.06,0.09 -0.07,0.08 -0.24,0.25 0.34,0.06 0.1,0.02 0.1,0.03 c 0.6,0.19 1.11,0.52 1.53,0.93 0.74,-0.88 1.2,-1.8 1.24,-1.86 l 0.15,-0.31 z"
         id="path6786" />
      <path
         class="cls-1"
         d="m 60.95,114.25 c -0.41,0 -0.81,-0.06 -1.2,-0.19 l -0.1,-0.03 -0.09,-0.05 -0.31,-0.15 0.05,0.34 v 0.1 c 0,0 0.01,0.11 0.01,0.11 0,0.63 -0.15,1.22 -0.41,1.74 1.06,0.43 2.08,0.59 2.15,0.6 l 0.34,0.05 0.06,-0.34 c 0.01,-0.07 0.18,-1.09 0.09,-2.23 -0.19,0.03 -0.39,0.05 -0.59,0.05 z"
         id="path6788" />
      <path
         class="cls-1"
         d="m 48,114.38 v -0.21 c 0,0 0.06,-0.34 0.06,-0.34 l -0.31,0.15 -0.09,0.05 -0.1,0.03 c -0.39,0.13 -0.79,0.19 -1.2,0.19 -0.2,0 -0.39,-0.02 -0.59,-0.05 -0.08,1.14 0.08,2.16 0.09,2.23 l 0.06,0.34 0.34,-0.05 c 0.07,-0.01 1.09,-0.17 2.15,-0.6 C 48.15,115.6 48,115 48,114.38 Z"
         id="path6790" />
      <path
         class="cls-1"
         d="m 50.19,59.21 c -0.3,0 -0.49,0.38 -0.52,1.08 h 0.57 c 0.31,0 0.39,-0.09 0.39,-0.41 0,-0.41 -0.17,-0.67 -0.45,-0.67 z"
         id="path6792" />
      <path
         class="cls-1"
         d="m 36.34,58.09 h -0.2 c -0.01,0.59 -0.01,1.18 -0.01,1.79 v 0.24 c 0,0.63 0,1.23 0.01,1.82 h 0.19 c 0.82,0 1.3,-0.72 1.3,-1.93 0,-1.21 -0.47,-1.93 -1.3,-1.93 z"
         id="path6794" />
      <path
         class="cls-1"
         d="M 48.34,47.03 H 33.07 V 72.8 h 15.27 c 1.85,0 3.5,0.84 4.61,2.15 V 51.64 c 0,-2.54 -2.07,-4.61 -4.61,-4.61 z m -8.02,9.99 c 0.38,0 0.67,0.27 0.67,0.64 0,0.37 -0.29,0.63 -0.67,0.63 -0.38,0 -0.67,-0.27 -0.67,-0.63 0,-0.36 0.29,-0.64 0.67,-0.64 z m -3.99,5.47 h -2.1 V 62 l 0.55,-0.06 c 0.01,-0.58 0.01,-1.17 0.01,-1.79 V 59.9 c 0,-0.58 0,-1.18 -0.01,-1.77 l -0.55,-0.06 v -0.49 h 2.23 c 1.57,0 2.55,0.94 2.55,2.45 0,1.51 -1.03,2.47 -2.68,2.47 z m 5.01,0 h -2.05 v -0.44 l 0.4,-0.09 c 0,-0.34 0,-0.78 0,-1.06 v -0.35 c 0,-0.39 0,-0.61 -0.02,-0.88 L 39.21,59.6 v -0.37 l 1.6,-0.51 0.17,0.11 -0.02,1.09 v 0.97 c 0,0.29 0,0.73 0,1.08 l 0.37,0.07 v 0.44 z m 1.51,0.11 c -0.48,0 -0.91,-0.11 -1.3,-0.34 l -0.03,-0.02 0.02,-0.98 h 0.68 L 42.35,62 c 0.17,0.06 0.33,0.09 0.5,0.09 0.4,0 0.6,-0.13 0.6,-0.38 0,-0.19 -0.1,-0.33 -0.58,-0.47 l -0.4,-0.12 c -0.6,-0.18 -0.92,-0.57 -0.92,-1.14 0,-0.75 0.64,-1.25 1.58,-1.25 0.4,0 0.75,0.09 1.18,0.31 l 0.03,0.02 -0.06,0.88 H 43.6 L 43.45,59.3 c -0.1,-0.03 -0.21,-0.05 -0.36,-0.05 -0.15,0 -0.5,0.03 -0.5,0.36 0,0.14 0.04,0.28 0.58,0.44 l 0.36,0.1 c 0.69,0.2 1.01,0.58 1.01,1.19 0,0.79 -0.64,1.27 -1.71,1.27 z m 5.34,-2.73 c -0.09,0.29 -0.26,0.42 -0.55,0.42 -0.21,0 -0.57,-0.1 -0.61,-0.74 l -0.05,-0.32 c 0,0 -0.06,0 -0.09,0 -0.38,0 -0.83,0.35 -0.83,1.33 0,0.79 0.36,1.26 0.97,1.26 0.3,0 0.55,-0.12 0.78,-0.39 l 0.03,-0.04 0.33,0.29 -0.02,0.04 c -0.29,0.59 -0.82,0.91 -1.55,0.91 -1.3,0 -1.88,-0.96 -1.88,-1.92 0,-1.15 0.83,-1.95 2.03,-1.95 0.77,0 1.36,0.47 1.42,1.12 v 0 c 0,0 0,0.02 0,0.02 z m 2.42,1.93 c 0.33,0 0.6,-0.12 0.85,-0.38 l 0.04,-0.04 0.32,0.3 -0.02,0.04 c -0.3,0.59 -0.84,0.88 -1.58,0.88 -1.14,0 -1.88,-0.76 -1.88,-1.93 0,-1.27 0.97,-1.94 1.93,-1.94 0.96,0 1.57,0.63 1.57,1.6 0,0.15 -0.01,0.27 -0.05,0.4 v 0.04 h -2.11 c 0.06,0.65 0.39,1.02 0.93,1.02 z"
         id="path6796" />
      <path
         class="cls-1"
         d="m 58.43,58.09 h -0.2 c -0.01,0.59 -0.01,1.18 -0.01,1.79 v 0.24 c 0,0.63 0,1.23 0.01,1.82 h 0.19 c 0.82,0 1.3,-0.72 1.3,-1.93 0,-1.21 -0.47,-1.93 -1.3,-1.93 z"
         id="path6798" />
      <path
         class="cls-1"
         d="m 63.27,59.21 c -0.39,0 -0.57,0.46 -0.57,1.45 0,1.29 0.33,1.44 0.57,1.44 0.38,0 0.56,-0.46 0.56,-1.44 0,-0.98 -0.18,-1.45 -0.56,-1.45 z"
         id="path6800" />
      <path
         class="cls-1"
         d="m 58.96,47.03 c -2.54,0 -4.61,2.07 -4.61,4.61 v 23.31 c 1.1,-1.31 2.76,-2.15 4.61,-2.15 H 74.23 V 47.03 Z m -0.54,15.45 h -2.1 v -0.49 l 0.55,-0.06 c 0.01,-0.58 0.01,-1.17 0.01,-1.79 v -0.25 c 0,-0.58 0,-1.18 -0.01,-1.77 l -0.55,-0.06 v -0.49 h 2.23 c 1.57,0 2.55,0.94 2.55,2.45 0,1.51 -1.03,2.47 -2.68,2.47 z m 4.85,0.11 c -1.16,0 -1.91,-0.77 -1.91,-1.95 0,-1.11 0.8,-1.92 1.91,-1.92 1.11,0 1.91,0.79 1.91,1.92 0,1.13 -0.75,1.95 -1.91,1.95 z m 5.58,-2.73 c -0.09,0.29 -0.26,0.42 -0.55,0.42 -0.21,0 -0.57,-0.1 -0.61,-0.74 l -0.05,-0.32 c 0,0 -0.06,0 -0.09,0 -0.38,0 -0.83,0.35 -0.83,1.33 0,0.79 0.36,1.26 0.97,1.26 0.3,0 0.55,-0.12 0.78,-0.39 l 0.03,-0.04 0.32,0.29 -0.02,0.04 c -0.29,0.59 -0.82,0.91 -1.55,0.91 -1.3,0 -1.88,-0.96 -1.88,-1.92 0,-1.15 0.83,-1.95 2.03,-1.95 0.77,0 1.37,0.47 1.42,1.12 v 0 c 0,0 0,0.02 0,0.02 z m 2.42,1.93 c 0.33,0 0.6,-0.12 0.85,-0.38 l 0.04,-0.04 0.32,0.3 -0.02,0.04 c -0.3,0.59 -0.84,0.88 -1.58,0.88 -1.14,0 -1.88,-0.76 -1.88,-1.93 0,-1.27 0.97,-1.94 1.93,-1.94 0.96,0 1.57,0.63 1.57,1.6 0,0.15 -0.01,0.27 -0.05,0.4 v 0.04 h -2.11 c 0.06,0.65 0.39,1.02 0.93,1.02 z"
         id="path6802" />
      <path
         class="cls-1"
         d="m 70.85,59.21 c -0.3,0 -0.49,0.38 -0.52,1.08 h 0.57 c 0.31,0 0.39,-0.09 0.39,-0.41 0,-0.41 -0.17,-0.67 -0.45,-0.67 z"
         id="path6804" />
      <path
         class="cls-2"
         d="m 311.58,73.24 c 3.35,0 5.98,-2.39 5.98,-5.66 0,-3.27 -2.63,-5.74 -5.98,-5.74 -3.35,0 -6.06,2.31 -6.06,5.74 0,3.43 2.63,5.66 6.06,5.66 z"
         id="path6806" />
      <path
         class="cls-2"
         d="m 147.24,12 h 12.84 v 2.51 l -4.55,0.54 V 32.6 c 0,11.29 -5.35,15.79 -13.43,15.79 -8.08,0 -13.32,-4.12 -13.32,-14.29 v -5.83 c 0,-4.39 0,-8.88 -0.11,-13.32 l -4.17,-0.43 v -2.51 h 16.27 v 2.51 l -4.92,0.54 c -0.11,4.33 -0.11,8.78 -0.11,13.22 v 4.17 c 0,8.72 3,11.61 8.24,11.61 5.24,0 8.45,-3.32 8.45,-12.15 V 15.1 l -5.19,-0.59 z"
         id="path6808" />
      <path
         class="cls-2"
         d="m 160.73,45.28 3.48,-0.7 c 0.05,-2.62 0.05,-6.05 0.05,-8.35 v -2.84 c 0,-2.94 -0.05,-4.28 -0.16,-6.42 l -3.75,-0.48 v -2.03 l 8.94,-3.37 0.86,0.54 0.37,4.12 c 2.73,-3.1 5.83,-4.66 9.1,-4.66 4.66,0 7.28,2.94 7.28,9.58 v 5.56 c 0,2.41 0,5.78 0.05,8.4 l 3.26,0.64 v 2.19 h -13.22 v -2.19 l 3.42,-0.7 c 0.05,-2.62 0.05,-5.94 0.05,-8.35 v -5.08 c 0,-4.17 -1.07,-5.56 -3.75,-5.56 -1.87,0 -3.85,0.86 -5.99,2.62 v 8.03 c 0,2.35 0,5.73 0.05,8.4 l 3.16,0.64 v 2.19 h -13.22 v -2.19 z"
         id="path6810" />
      <path
         class="cls-2"
         d="m 192.93,45.28 3.53,-0.7 c 0.05,-2.62 0.05,-6.05 0.05,-8.35 v -2.51 c 0,-2.94 -0.05,-4.6 -0.16,-6.74 l -3.8,-0.48 v -2.03 l 9.63,-3.37 0.86,0.54 -0.16,7.54 v 7.06 c 0,2.3 0,5.73 0.05,8.4 l 3.26,0.64 v 2.19 h -13.27 v -2.19 z"
         id="path6812" />
      <path
         class="cls-2"
         d="m 223.52,21.84 h 10.17 v 2.25 l -3,0.64 -8.78,22.96 h -3.16 l -9.69,-23.12 -2.78,-0.48 v -2.25 h 14.07 v 2.25 l -4.12,0.64 5.89,15.52 5.3,-15.46 -3.91,-0.7 v -2.25 z"
         id="path6814" />
      <path
         class="cls-2"
         d="m 234.1,34.79 c 0,-8.56 6.26,-13.7 13,-13.7 6.31,0 10.49,4.28 10.49,10.76 0,1.23 -0.11,2.14 -0.32,2.94 H 240.9 c 0.27,6.15 3.53,9.2 8.03,9.2 3.16,0 5.19,-1.39 6.96,-3.37 l 1.55,1.39 c -2.09,3.96 -5.73,6.21 -10.7,6.21 -7.49,0 -12.63,-5.03 -12.63,-13.43 z m 6.85,-2.51 h 7.33 c 2.57,0 3.21,-1.12 3.21,-3.05 0,-3.26 -2.14,-5.56 -4.76,-5.56 -2.62,0 -5.35,2.25 -5.78,8.61 z"
         id="path6816" />
      <path
         class="cls-2"
         d="m 283.99,45.98 -0.05,-6.21 h 3.59 l 0.96,4.98 c 1.28,0.54 2.62,0.8 4.17,0.8 3.64,0 5.4,-1.34 5.4,-3.64 0,-1.98 -1.28,-3.1 -4.71,-4.23 l -2.68,-0.91 c -4.01,-1.28 -6.47,-3.75 -6.47,-7.54 0,-4.44 3.59,-8.13 10.17,-8.13 3.05,0 5.46,0.8 7.97,2.19 l -0.27,5.62 h -3.53 l -0.96,-4.49 c -1.02,-0.43 -2.03,-0.64 -3.32,-0.64 -2.84,0 -4.49,1.28 -4.49,3.37 0,1.93 1.07,2.89 4.71,4.12 l 2.14,0.64 c 5.19,1.77 7.22,4.39 7.22,8.08 0,4.82 -4.01,8.24 -11.24,8.24 -3.26,0 -5.89,-0.75 -8.61,-2.25 z"
         id="path6818" />
      <path
         class="cls-2"
         d="m 306.03,45.28 3.53,-0.7 c 0.05,-2.62 0.05,-6.05 0.05,-8.35 v -2.51 c 0,-2.94 -0.05,-4.6 -0.16,-6.74 l -3.8,-0.48 v -2.03 l 9.63,-3.37 0.86,0.54 -0.16,7.54 v 7.06 c 0,2.3 0,5.73 0.05,8.4 l 3.26,0.64 v 2.19 h -13.27 v -2.19 z"
         id="path6820" />
      <path
         class="cls-2"
         d="m 323.6,41.48 c 0,-1.61 0.05,-2.89 0.05,-4.98 V 25.1 h -3.96 v -2.78 l 4.33,-0.54 2.03,-7.33 h 4.33 l -0.21,7.38 h 6.42 v 3.26 h -6.47 v 15.79 c 0,2.62 1.12,3.8 2.84,3.8 1.07,0 2.03,-0.43 3.26,-1.34 l 1.28,1.34 c -1.39,2.25 -3.75,3.53 -7.06,3.53 -4.28,0 -6.85,-2.03 -6.85,-6.74 z"
         id="path6822" />
      <path
         class="cls-2"
         d="m 379.3,34.68 c 0,-8.56 5.99,-13.59 12.9,-13.59 6.91,0 12.95,4.98 12.95,13.59 0,8.61 -5.73,13.54 -12.95,13.54 -7.22,0 -12.9,-5.03 -12.9,-13.54 z m 18.84,0.05 c 0,-7.38 -2.09,-11.02 -5.94,-11.02 -3.85,0 -5.89,3.64 -5.89,11.02 0,7.38 2.03,10.86 5.89,10.86 3.86,0 5.94,-3.48 5.94,-10.86 z"
         id="path6824" />
      <path
         class="cls-2"
         d="m 125.63,117.1 0.48,-11.48 h 6.14 l 1.59,9.65 c 2.47,1.12 4.86,1.67 8.05,1.67 6.62,0 10.61,-3.35 10.61,-8.61 0,-4.71 -2.55,-6.86 -8.37,-9.25 l -3.27,-1.36 c -8.77,-3.75 -14.27,-8.45 -14.27,-16.91 0,-9.41 7.74,-15.07 18.9,-15.07 5.5,0 10.37,1.59 14.04,4.15 l -0.56,10.77 h -6.06 l -1.59,-9.25 c -1.91,-0.88 -3.75,-1.28 -5.98,-1.28 -5.34,0 -9.57,2.95 -9.57,8.13 0,4.63 2.95,7.18 8.21,9.33 l 3.43,1.44 c 10.37,4.39 14.43,8.85 14.43,16.67 0,9.41 -7.5,15.63 -19.86,15.63 -5.98,0 -12.2,-1.59 -16.35,-4.23 z"
         id="path6826" />
      <path
         class="cls-2"
         d="m 164.76,116.7 5.26,-1.04 c 0.08,-3.91 0.08,-9.01 0.08,-12.44 V 69.01 l -5.82,-0.8 V 65.1 l 14.27,-3.59 1.2,0.72 -0.32,11.24 v 14.27 c 4.07,-4.71 8.77,-7.1 13.64,-7.1 6.94,0 10.93,4.39 10.93,14.27 v 8.29 c 0,3.59 0,8.61 0.08,12.52 l 4.86,0.96 v 3.27 h -19.7 v -3.27 l 5.1,-1.04 c 0.08,-3.91 0.08,-8.85 0.08,-12.44 v -7.58 c 0,-6.22 -1.52,-8.29 -5.5,-8.29 -3.03,0 -5.98,1.44 -9.25,4.55 v 11.32 c 0,3.51 0,8.53 0.08,12.52 l 4.71,0.96 v 3.27 h -19.7 v -3.27 z"
         id="path6828" />
      <path
         class="cls-2"
         d="m 211.35,101.07 c 0,-12.76 9.33,-20.42 19.38,-20.42 9.41,0 15.63,6.38 15.63,16.03 0,1.83 -0.16,3.19 -0.48,4.39 h -24.4 c 0.4,9.17 5.26,13.72 11.96,13.72 4.71,0 7.74,-2.07 10.37,-5.02 l 2.31,2.07 c -3.11,5.9 -8.53,9.25 -15.95,9.25 -11.16,0 -18.82,-7.5 -18.82,-20.02 z m 10.21,-3.75 h 10.93 c 3.83,0 4.78,-1.67 4.78,-4.55 0,-4.86 -3.19,-8.29 -7.1,-8.29 -3.91,0 -7.97,3.35 -8.61,12.84 z"
         id="path6830" />
      <path
         class="cls-2"
         d="m 322.56,101.07 c 0,-12.76 9.33,-20.42 19.38,-20.42 9.41,0 15.63,6.38 15.63,16.03 0,1.83 -0.16,3.19 -0.48,4.39 h -24.4 c 0.4,9.17 5.26,13.72 11.96,13.72 4.71,0 7.74,-2.07 10.37,-5.02 l 2.31,2.07 c -3.11,5.9 -8.53,9.25 -15.95,9.25 -11.16,0 -18.82,-7.5 -18.82,-20.02 z m 10.21,-3.75 h 10.93 c 3.83,0 4.78,-1.67 4.78,-4.55 0,-4.86 -3.19,-8.29 -7.1,-8.29 -3.91,0 -7.97,3.35 -8.61,12.84 z"
         id="path6832" />
      <path
         class="cls-2"
         d="m 360.43,116.7 5.42,-1.04 c 0.08,-4.15 0.16,-8.29 0.16,-12.44 V 69.01 l -5.82,-0.8 V 65.1 l 14.51,-3.59 1.2,0.72 -0.32,11.24 v 29.75 c 0,4.15 0.08,8.29 0.16,12.44 l 5.42,1.04 v 3.27 h -20.73 z"
         id="path6834" />
      <path
         class="cls-2"
         d="m 410.68,115.82 c -2.95,3.43 -6.46,5.26 -11.16,5.26 -9.41,0 -16.11,-7.58 -16.11,-19.86 0,-12.28 7.89,-20.57 17.3,-20.57 4.07,0 7.18,1.44 10.05,4.78 V 69 l -6.22,-0.8 v -3.11 l 14.59,-3.59 1.2,0.72 -0.32,11.24 v 42.35 l 5.18,0.88 v 3.27 l -13.88,0.88 -0.64,-5.02 z m -7.34,-0.4 c 2.79,0 4.94,-1.12 7.02,-3.27 V 89.26 c -2.47,-2.15 -4.55,-3.03 -6.94,-3.03 -5.34,0 -9.81,4.63 -9.81,14.83 0,9.65 4.07,14.35 9.73,14.35 z"
         id="path6836" />
      <path
         class="cls-2"
         d="m 278.37,21.09 c -3.53,-0.08 -6.14,2.05 -8.01,6.85 l -0.54,-6.31 -0.86,-0.54 -8.94,3.37 v 2.03 l 3.75,0.48 c 0.11,2.14 0.16,3.48 0.16,6.42 v 2.84 c 0,2.3 0,5.73 -0.05,8.4 l -3.42,0.64 v 2.19 h 14.39 v -2.19 l -4.39,-0.86 c -0.05,-2.62 -0.05,-5.94 -0.05,-8.19 v -3.91 c 0.8,-2.84 2.37,-5.36 4.32,-6.78 v 0 c 0.4,1.55 1.85,2.61 3.64,2.61 2.07,0 3.7,-1.48 3.7,-3.51 0,-2.03 -1.63,-3.51 -3.7,-3.56 z"
         id="path6838" />
      <path
         class="cls-2"
         d="m 316.53,115.74 c -0.08,-3.99 -0.08,-9.01 -0.08,-12.52 V 92.69 l 0.23,-12.43 -1.19,-0.71 -8.95,2.21 h -15.57 c 0,0 0,-5.85 0,-7.9 0,-2.05 0.13,-6.39 2.99,-7.96 0,0 -0.41,0.73 -0.34,2.07 0.16,2.3 2.08,3.96 4.55,3.96 2.47,0 4.5,-1.8 4.5,-4.26 0,-2.29 -1.86,-5.83 -7.32,-5.83 -4.8,0 -13.73,2.49 -13.73,19.67 v 0.26 h -16.53 c 0,0 0,-5.85 0,-7.9 0,-2.05 0.13,-6.39 2.99,-7.96 0,0 -0.41,0.73 -0.34,2.07 0.16,2.3 2.08,3.96 4.55,3.96 2.47,0 4.5,-1.8 4.5,-4.26 0,-2.29 -1.86,-5.83 -7.32,-5.83 -4.8,0 -13.73,2.49 -13.73,19.67 v 0.18 l -6.06,0.8 v 4.15 h 5.9 v 16.59 c 0,4.15 -0.08,8.29 -0.16,12.44 l -5.34,1.04 v 3.27 h 21.53 v -3.27 l -6.22,-1.2 c -0.08,-4.07 -0.16,-8.21 -0.16,-12.28 V 86.65 h 16.21 v 16.59 c 0,4.15 -0.08,8.29 -0.16,12.44 l -5.34,1.04 v 3.27 h 21.53 v -3.27 l -6.22,-1.2 c -0.08,-4.07 -0.16,-8.21 -0.16,-12.28 V 86.65 h 15.45 c 0.14,3.29 0.21,6.88 0.21,11.72 v 4.86 c 0,3.43 0,8.53 -0.08,12.44 l -5.18,1.04 v 3.27 h 19.78 v -3.27 l -4.78,-0.96 z"
         id="path6840" />
      <path
         class="cls-2"
         d="m 356.91,21.84 v 2.14 l 4.07,0.64 -5.83,16.32 -5.99,-16.37 4.23,-0.59 v -2.14 h -14.02 v 2.14 l 2.73,0.43 10.17,24.77 -0.11,0.32 c -0.96,2.73 -2.35,5.19 -4.28,7.01 -0.31,-1.6 -1.69,-2.64 -3.4,-2.64 -1.99,0 -3.51,1.34 -3.51,3.33 0,1.99 1.52,3.28 3.51,3.28 h 0.08 c 4.66,0 7.38,-3.85 10.49,-12.04 l 9.15,-23.86 3,-0.59 v -2.14 h -10.27 z"
         id="path6842" />
      <path
         class="cls-2"
         d="m 423.66,21.84 h -6.49 c 0,0 0,-4.13 0,-5.51 0,-1.38 0.09,-4.31 2.02,-5.38 0,0 -0.27,0.49 -0.23,1.4 0.11,1.56 1.4,2.67 3.08,2.67 1.68,0 3.04,-1.22 3.04,-2.88 0,-1.54 -1.25,-3.94 -4.94,-3.94 -3.24,0 -9.27,1.68 -9.27,13.29 v 0.35 l -4.09,0.54 v 2.73 h 3.99 v 11.05 c 0,2.8 -0.05,5.6 -0.11,8.4 l -3.61,0.7 v 2.21 h 14.54 v -2.21 l -4.2,-0.81 c -0.05,-2.75 -0.11,-5.55 -0.11,-8.3 V 25.1 h 6.38 z"
         id="path6844" />
      <path
         class="cls-2"
         d="m 308.7,12.32 c 0,-2.3 1.77,-3.85 4.07,-3.85 2.3,0 4.01,1.55 4.01,3.85 0,2.3 -1.77,3.8 -4.01,3.8 -2.24,0 -4.07,-1.61 -4.07,-3.8 z"
         id="path6846" />
      <path
         class="cls-2"
         d="m 195.61,12.32 c 0,-2.3 1.77,-3.85 4.07,-3.85 2.3,0 4.01,1.55 4.01,3.85 0,2.3 -1.77,3.8 -4.01,3.8 -2.24,0 -4.07,-1.61 -4.07,-3.8 z"
         id="path6848" />
    </g>
    <rect
       id="rect19612"
       width="0.8001647"
       height="29.700001"
       x="124.31398"
       y="5.6746669"
       style="fill:#440099;fill-opacity:1;stroke-width:0.26428" />
  </g>
</svg>
