<?xml version="1.0" encoding="utf-8"?>
<!-- Generator: Adobe Illustrator 15.1.0, SVG Export Plug-In . SVG Version: 6.00 Build 0)  -->
<!DOCTYPE svg PUBLIC "-//W3C//DTD SVG 1.0//EN" "http://www.w3.org/TR/2001/REC-SVG-20010904/DTD/svg10.dtd">
<svg version="1.0" id="Layer_1" xmlns="http://www.w3.org/2000/svg" xmlns:xlink="http://www.w3.org/1999/xlink" x="0px" y="0px"
	 width="387.729px" height="158.416px" viewBox="0 0 387.729 158.416" enable-background="new 0 0 387.729 158.416"
	 xml:space="preserve">
<g>
	<g>
		<path fill="#005581" d="M101.652,75.777c-0.594-2.723-2.396-5.053-5.363-6.939c-2.986-1.902-7.525-2.861-13.486-2.861
			c-4.961,0-9.051,0.848-12.131,2.531c-3.074,1.672-5.139,3.605-6.139,5.758c-1.029,2.189-1.545,5.369-1.545,9.453v3.123h15.783
			v-5.145c0-3.096,0.158-4.979,0.48-5.76c0.264-0.635,0.965-1.393,2.781-1.393c1.275,0,2.238,0.539,2.793,1.553
			c0.502,0.932,0.744,2.797,0.744,5.713c0,2.346-0.227,3.883-0.682,4.693c-0.336,0.59-1.754,1.641-9.775,4.52
			c-5.414,1.92-8.838,3.607-10.162,5.004c-1.303,1.369-1.963,4.047-1.963,7.959v4.445c0,5.27,1.25,8.713,3.713,10.219
			c2.529,1.557,5.348,2.344,8.381,2.344c2.297,0,4.295-0.463,5.941-1.379c1.656-0.916,3.02-2.32,4.064-4.168l1.025,0.223v4.336
			h16.463V93.373C102.576,84.517,102.263,78.597,101.652,75.777z M85.57,105.917c0,3.766-0.328,4.813-0.564,5.266
			c-0.443,0.826-1.348,1.244-2.703,1.244c-1.771,0-2.547-0.83-2.887-1.521c-0.43-0.893-0.645-2.732-0.645-5.641
			c0-2.529,0.23-4.424,0.711-5.797c0.506-1.424,2.211-3.092,5.221-5.113l0.867-0.584V105.917z"/>
	</g>
	<g>
		<path fill="#005581" d="M148.619,72.402c-0.469-1.67-1.682-3.172-3.6-4.473c-1.928-1.297-4.252-1.953-6.904-1.953
			c-2.186,0-4.213,0.453-6.057,1.369c-1.85,0.926-3.574,2.334-5.119,4.205l-1.084,1.311l0.107-1.637l0.268-4.254h-17.271v60.734
			h17.004v-13.373l0.977,1.172c1.52,1.82,3.215,3.207,5.035,4.123c1.805,0.904,3.797,1.367,5.92,1.367
			c2.66,0,4.959-0.592,6.836-1.766c1.85-1.16,3.096-2.738,3.693-4.697c0.621-2.021,0.939-5.504,0.939-10.35V81.41
			C149.363,77.177,149.113,74.15,148.619,72.402z M132.361,105.363c0,2.965-0.148,4.795-0.455,5.607
			c-0.238,0.664-0.898,1.457-2.619,1.457c-1.742,0-2.465-0.842-2.768-1.541c-0.371-0.877-0.557-2.936-0.557-6.291v-22.42
			c0-3.223,0.176-5.209,0.533-6.088c0.289-0.707,0.996-1.543,2.752-1.543c1.793,0,2.455,0.762,2.693,1.398
			c0.273,0.77,0.42,2.805,0.42,6.232V105.363z"/>
	</g>
	<g>
		<rect x="155.035" y="55.042" fill="#005581" width="17.551" height="64.963"/>
	</g>
	<g>
		<path fill="#005581" d="M218.432,93.916v-6.66c0-5.143-0.648-9.184-1.947-12c-1.268-2.775-3.52-5.033-6.685-6.723
			c-3.191-1.703-7.305-2.557-12.244-2.557c-4.027,0-7.631,0.713-10.73,2.125c-3.053,1.395-5.279,3.424-6.619,6.039
			c-1.354,2.65-2.043,6.342-2.043,10.975v15.762c0,3.967,0.305,7.012,0.916,9.059c0.602,2.027,1.697,3.91,3.26,5.596
			c1.551,1.674,3.764,3.02,6.584,3.992c2.838,0.979,6.162,1.471,9.883,1.471c3.84,0,7.057-0.496,9.584-1.484
			c2.503-0.986,4.595-2.475,6.226-4.438c1.637-1.979,2.693-3.855,3.135-5.574c0.455-1.76,0.682-4.322,0.682-7.6V98.39h-16.054v6.66
			c0,2.795-0.24,4.646-0.727,5.67c-0.363,0.771-1.23,1.707-3.188,1.707c-1.619,0-2.352-0.729-2.672-1.34
			c-0.422-0.783-0.627-2.406-0.627-4.955V93.916H218.432z M195.166,81.658c0-4.162,0.273-5.285,0.479-5.758
			c0.254-0.619,0.953-1.355,2.783-1.355c1.225,0,2.088,0.531,2.482,1.545c0.344,0.873,0.518,2.695,0.518,5.568v4.439h-6.262V81.658z
			"/>
	</g>
	<path fill="#005581" d="M57.052,55.042v64.99H40.89l-0.057-43.879l-6.452,43.879H22.994l-6.771-42.949l-0.043,42.949H0.01v-64.99
		h23.871c0.696,3.939,1.434,8.555,2.214,13.852l2.643,16.498l4.245-30.35H57.052z"/>
</g>
<path d="M228.098,109.314c1.537,2.953,6.242,7.547,12.379,7.547c5.463,0,10.611-3.393,10.611-9.852
	c0-13.572-25.824-5.578-25.824-24.072c0-9.527,6.561-16.525,18.162-16.525c5.365,0,8.76,1.965,12.141,3.063
	c-1.189,2.076-2.404,6.125-2.619,7.77h-1.318c-1.096-3.506-4.701-6.793-9.631-6.793c-4.266,0-9.309,2.736-9.309,9.197
	c0,14.23,25.842,5.477,25.842,23.973c0,8.314-7.555,17.293-19.703,17.293c-6.674,0-11.051-1.863-14.119-3.621
	c0.875-1.85,2.078-5.795,2.078-7.979H228.098z"/>
<path d="M288.709,66.412c12.695,0,26.596,7.326,26.596,27.244c0,19.928-13.9,27.258-26.596,27.258c-12.701,0-26.6-7.33-26.6-27.258
	C262.11,73.738,276.008,66.412,288.709,66.412z M288.709,117.406c12.91,0,16.951-11.486,16.951-23.75
	c0-12.252-4.041-23.74-16.951-23.74c-12.92,0-16.973,11.488-16.973,23.74C271.737,105.919,275.79,117.406,288.709,117.406z"/>
<path d="M345.331,46.048c-1.744-1.092-3.814-1.643-6.02-1.643c-6.461,0-8.961,5.258-8.961,10.941c0,2.633,0.654,8.326,1.301,12.813
	c3.725,0,7.557-0.111,11.281-0.111c-0.115,0.77-0.227,1.537-0.227,2.188c0,0.768,0.111,1.539,0.227,2.191
	c-3.725-0.107-7.557-0.322-11.281-0.322c0,15.861,0,31.623,0.436,47.707c-1.521-0.328-3.158-0.547-4.701-0.547
	c-1.527,0-3.17,0.219-4.805,0.547c0.973-16.084,0.973-31.729,0.973-47.707c-2.621,0-5.246,0.215-7.875,0.322
	c0.111-0.652,0.215-1.424,0.215-2.191c0-0.65-0.104-1.418-0.215-2.188c2.629,0,5.365,0.111,7.875,0.111
	c0-8.537,3.725-20.684,9.525-26.486c2.621-2.623,6.998-5.035,11.166-5.035c0.652,0,1.529,0.111,2.184,0.33
	c-0.104,2.957-0.432,5.914-0.432,8.754L345.331,46.048z"/>
<path d="M364.155,52.837h0.553c-0.432,5.477-0.664,10.836-0.879,16.197c1.533,0,6.576-0.113,11.609-0.322
	c-0.111,0.762-0.111,1.523-0.111,2.291c0,0.771,0,1.533,0.111,2.295c-3.84-0.209-8.977-0.209-11.609-0.209
	c-0.217,1.092-0.762,18.268-0.762,27.797c0,8.207,0.213,16.52,8.861,16.52c1.201,0,3.51-0.322,4.932-0.764v2.623
	c-2.529,0.877-5.697,1.648-8.438,1.648c-9.084,0-13.455-5.145-13.455-13.686c0-7.988,0.65-17.84,0.766-34.139
	c-2.188,0-4.6,0-7.453,0.209c0.117-0.871,0.232-1.637,0.232-2.516c0-0.756-0.115-1.422-0.232-2.191
	c3.305,0.227,5.701,0.33,7.234,0.33c-0.113-2.844-0.223-7.551-0.438-12.258L364.155,52.837z"/>
<linearGradient id="SVGID_1_" gradientUnits="userSpaceOnUse" x1="361.9497" y1="-16.3633" x2="370.3351" y2="22.6445" gradientTransform="matrix(-0.969 0.247 0.247 0.969 602.4677 -76.7519)">
	<stop  offset="0" style="stop-color:#FFFFFF"/>
	<stop  offset="1" style="stop-color:#005581"/>
</linearGradient>
<path fill="url(#SVGID_1_)" d="M316.954,2.452c-1.662-0.247-4.588,0.473-7.551,1.39c-5.092,1.566-14.289,11.204-21.971,17.932
	c-7.119,6.234-17.609,19.332-42.547,21.814c-14.582,0.631-20.111-4.236-22.469-6.18c-1.428-1.164-12.273-7.775-20.975-10.203
	c-6.772-1.892-12.755-2.705-13.785-2.33c-1.904,0.693-7.08,0.797-7.08,0.797s-4.661-1.168-4.095-3.772
	c0.567-2.61,3.506-0.329,5.526-0.29c2.031,0.042,9.764,0.105,17.434,2.485c7.394,2.285,20.494,9.137,23.93,8.495
	c3.412-0.65,11.213-10.929,11.535-14.041c0.326-3.109,2.137-0.434,2.9,0.832c0.775,1.256,1.215,4.285,2.791,2.537
	c1.566-1.743,9.5-11.048,10.545-12.662c1.055-1.616,2.686-0.017,3.326,0.721c0.637,0.738,4.172,7.564,6.303,7.586
	c2.133,0.014,10.033-8.606,12.893-8.328c0,0-4.371,7.398-3.82,8.713c0.561,1.314,5.668,1.236,11.229-2.735
	c4.645-3.312,13.574-10.591,14.561-11.214c5.242-3.253,9.273-4.163,10.646-3.975c-1.756,0.567-4.285,2.071-4.285,2.071
	s10.211-2.572,13.402-1.93c3.184,0.643,4.543,2.432,4.758,2.822C320.358,3.382,316.954,2.452,316.954,2.452z"/>
<radialGradient id="SVGID_2_" cx="327.1899" cy="-35.2905" r="67.757" gradientTransform="matrix(-0.969 0.247 0.247 0.969 602.4677 -76.7519)" gradientUnits="userSpaceOnUse">
	<stop  offset="0" style="stop-color:#FFFFFF"/>
	<stop  offset="1" style="stop-color:#005581"/>
</radialGradient>
<path fill="url(#SVGID_2_)" d="M299.536,8.771c-4.445,1.911-6.355-2.579-7.4-4.447c-1.035-1.867-2.074-0.965-2.871-0.252
	c-1.115,1-11.699,12.902-14.713,16.023c-3.014,3.123-6.281-4.465-7.781-6.861c-2.037-3.238-5.768,8.97-8.619,9.299
	c-1.941,0.225-8.631-7.844-9.908-8.867c-1.258-1.025-2.912-3.545-3.832,1.244c-0.889,4.604-5.43,15.404-7.107,16.287
	c-1.682,0.873-9.422-3.424-10.822-4.076c-1.398-0.65-0.451,10.115-2.326,10.258l-1.814-0.223c0,0,3.266,8.848,24.404,6.223
	c15.109-1.879,24.143-6.131,38.092-19.201c12.625-11.836,20.988-18.461,20.988-18.461L299.536,8.771z"/>
<g>
	<g opacity="0.75">
		
			<linearGradient id="SVGID_3_" gradientUnits="userSpaceOnUse" x1="159.1514" y1="183.2446" x2="163.0955" y2="211.2258" gradientTransform="matrix(-0.996 0.0231 -2.2885 -0.951 875.8492 246.8432)">
			<stop  offset="0" style="stop-color:#FFFFFF"/>
			<stop  offset="1" style="stop-color:#005581"/>
		</linearGradient>
		<path opacity="0.2" fill="url(#SVGID_3_)" d="M311.985,55.755c-0.984,0.223-3.695,0.293-6.605,0.314
			c-5.008,0.041-20.041-1.777-31.438-2.93c-10.559-1.063-30.463-3.629-50.418-1.992c-10.947,1.188-9.51,2.99-10.365,3.418
			c-0.531,0.262-6.516,1.512-13.949,1.596c-5.79,0.07-11.676-0.141-13.151-0.344c-2.739-0.371-8.557-0.803-8.557-0.803
			s-4.113,0.006-1.116,0.871c2.994,0.875,4.184,0.387,6.378,0.527c2.213,0.148,10.719,0.732,17.059,0.578
			c6.102-0.148,14.378-1.291,18.765-0.814c4.369,0.467,17.793,1.928,20.762,2.758c2.971,0.832,1.9-0.076,1.34-0.494
			c-0.559-0.43-2.914-1.309-0.254-0.975c2.65,0.342,16.502,2.188,18.658,2.541c2.166,0.348,1.932-0.252,1.734-0.512
			c-0.195-0.266-3.689-2.492-2.18-2.701c1.5-0.191,14.723,1.467,16.518,1.115c0,0-9.635-1.645-10.395-2.064
			c-0.754-0.41,2.949-0.875,10.406-0.285c6.229,0.482,18.977,1.652,20.25,1.754c1.285,0.098,7.516,0.23,8.027,0.182
			c0.525-0.043-3.035-0.223-3.035-0.223s10.752-0.258,12.461-0.742c1.717-0.477,1.1-1.096,0.9-1.225
			C313.596,55.179,311.985,55.755,311.985,55.755z"/>
		
			<radialGradient id="SVGID_4_" cx="143.2583" cy="324.5425" r="77.724" gradientTransform="matrix(-0.9589 0.0231 -0.715 -0.3086 677.7723 171.48)" gradientUnits="userSpaceOnUse">
			<stop  offset="0.0056" style="stop-color:#FFFFFF"/>
			<stop  offset="1" style="stop-color:#005581"/>
		</radialGradient>
		<path opacity="0.2" fill="url(#SVGID_4_)" d="M294.012,55.63c-4.859-0.123-3.932,0.816-3.021,1.434
			c0.891,0.607-0.859,0.537-2.059,0.418c-1.68-0.184-17.799-2.082-22.709-2.678c-4.881-0.582-0.531,1.832,0.506,2.637
			c1.395,1.09-11.998-1.951-14.322-1.775c-1.588,0.117,0.756,2.979,0.748,3.391c0,0.398,1.045,1.252-3.83,0.008
			c-4.686-1.195-17.422-3.777-19.404-3.859c-1.965-0.084-3.695,1.83-4.115,2.135c-0.424,0.318-8.498-2.439-10.686-2.633
			l-1.814-0.066c0,0-1.043-2.5,11.131-3.475c12.18-0.977,24.148-0.695,45.529,1.549c21.4,2.256,31.223,3.215,31.223,3.215
			L294.012,55.63z"/>
	</g>
	<g opacity="0.75">
		
			<linearGradient id="SVGID_5_" gradientUnits="userSpaceOnUse" x1="490.3491" y1="182.5933" x2="494.3223" y2="210.7806" gradientTransform="matrix(-1.0025 0.0016 1.5264 -1 446.8361 258.2905)">
			<stop  offset="0" style="stop-color:#FFFFFF"/>
			<stop  offset="1" style="stop-color:#005581"/>
		</linearGradient>
		<path opacity="0.2" fill="url(#SVGID_5_)" d="M325.297,56.177c-1.707,0.197-4.477,0.215-7.234,0.172
			c-4.742-0.07-11.875-2.223-18.107-3.635c-5.766-1.303-14.637-4.309-38.967-3.119c-14.402,0.945-19.713,2.773-22.08,3.188
			c-1.41,0.246-11.508,1.355-18.664,1.285c-5.566-0.061-10.205-0.406-10.813-0.637c-1.163-0.428-4.908-1-4.908-1
			s-3.784-0.088-4.229,0.854c-0.456,0.938,2.436,0.471,3.936,0.666c1.487,0.197,7.141,0.971,13.533,0.967
			c6.146-0.018,17.971-0.982,20.248-0.412c2.279,0.572,9.236,2.334,8.912,3.232c-0.34,0.9,2.02-0.031,3.055-0.465
			c1.035-0.439,2.117-1.379,3.318-0.971c1.193,0.396,7.131,2.549,7.838,2.941c0.693,0.4,2.668-0.195,3.461-0.469
			c0.787-0.273,5.754-2.572,7.895-2.74c2.125-0.174,8.17,1.773,11.088,1.477c0,0-2.803-1.861-1.969-2.295
			c0.838-0.436,5.928-0.809,10.627-0.063c3.918,0.629,11.35,2.078,12.137,2.217c0.797,0.125,6.059,0.389,6.695,0.361
			c0.648-0.035-1.939-0.301-1.939-0.301s10.824-0.02,14.131-0.453c3.318-0.441,5.039-1.074,5.344-1.209
			C328.899,55.636,325.297,56.177,325.297,56.177z"/>
		
			<radialGradient id="SVGID_6_" cx="474.1333" cy="323.5981" r="77.6901" gradientTransform="matrix(-0.9652 0.0016 0.4769 -0.3245 555.9385 179.2102)" gradientUnits="userSpaceOnUse">
			<stop  offset="0" style="stop-color:#FFFFFF"/>
			<stop  offset="1" style="stop-color:#005581"/>
		</radialGradient>
		<path opacity="0.2" fill="url(#SVGID_6_)" d="M309.272,55.65c-4.029-0.232-6.617,0.725-8.043,1.365
			c-1.434,0.633-2.783,0.514-3.424,0.369c-0.9-0.215-8.705-2.477-11.049-3.176c-2.352-0.689-7.205,1.813-9.213,2.646
			c-2.709,1.115-3.83-2.225-6.623-2.098c-1.879,0.08-10.266,2.998-11.75,3.4c-1.48,0.4-3.652,1.281-3.553-0.076
			c0.088-1.297-2.146-4.158-3.629-4.283c-1.496-0.137-10.127,1.74-11.666,2.047c-1.529,0.301,1.168-2.633-0.146-2.873l-1.4-0.111
			c0,0,8.215-2.525,22.986-3.227c14.758-0.697,24.732-0.16,36.105,2.566c11.396,2.727,16.865,3.91,16.865,3.91L309.272,55.65z"/>
	</g>
</g>
<path d="M384.063,69.13h-2.34v0.504h0.914v3.014h0.512v-3.014h0.914V69.13z M387.729,69.13h-0.734l-0.857,2.482h-0.014l-0.813-2.482
	h-0.75v3.518h0.461v-3.014h0.012l0.965,3.014h0.271l0.979-3.014h0.023v3.014h0.457V69.13z"/>
<g>
	<path fill="#005581" d="M12.743,141.109h2.691v13.824h-1.528v-11.391c0-0.59,0.033-1.16,0-1.75h-0.037
		c-0.169,0.811-0.297,1.326-0.426,1.863l-2.891,11.277h-1.83l-2.894-11.445c-0.125-0.48-0.239-0.941-0.401-1.695H5.394
		c0,0.59,0.032,1.197,0.032,1.787v11.354H3.896v-13.824h2.709l2.709,10.783c0.145,0.59,0.222,1.16,0.292,2.047h0.041
		c0.091-0.701,0.184-1.385,0.35-2.068L12.743,141.109z"/>
	<path fill="#005581" d="M27.49,154.933c-0.115,0.018-0.226,0.035-0.336,0.07c-1.234,0.059-1.694-0.053-1.841-1.451h-0.037
		c-0.354,0.898-1.292,1.656-2.265,1.656c-2.051,0-2.636-1.143-2.636-3.004c0-0.387,0.051-1.861,1.469-2.486
		c0.832-0.369,2.898-1.145,3.078-1.293c0.313-0.238,0.28-0.645,0.28-1.18c0-1.16-0.442-1.605-1.624-1.605
		c-1.326,0-1.514,0.607-1.491,1.811h-1.31c-0.074-2.119,0.979-3.043,3.041-3.043c3.042,0,2.784,2.547,2.784,2.785v5.877
		c0,0.258-0.034,0.627,0.258,0.775c0.206,0.055,0.426,0.035,0.63,0.018V154.933z M25.092,149.402
		c-0.722,0.424-1.528,0.738-2.305,1.109c-0.681,0.311-0.905,1.066-0.905,1.768c0,1.031,0.26,1.695,1.443,1.695
		c0.548,0,1.767-0.422,1.767-2.082V149.402z"/>
	<path fill="#005581" d="M33.973,144.685h1.715v1.234h-1.693v6.986c0,0.35-0.13,0.791,0.681,0.791h0.973v1.236h-1.603
		c-0.865,0.018-1.509-0.131-1.509-1.678v-7.336H31.12v-1.234h1.418v-2.783h1.436V144.685z"/>
	<path fill="#005581" d="M41.841,154.933h-1.454v-13.824h1.454v4.699h0.042c0.662-0.883,1.417-1.4,2.521-1.4
		c1.53,0,2.526,0.811,2.526,2.617v7.908h-1.459v-7.502c0-1.068-0.351-1.791-1.527-1.791c-0.539,0-1.047,0.207-1.437,0.574
		c-0.593,0.535-0.667,1.125-0.667,1.861V154.933z"/>
	<path fill="#005581" d="M58.432,151.521c0.092,2.01-0.943,3.688-3.096,3.688c-1.935,0-3.318-1.291-3.318-5.42
		c0-2.156,0.567-5.381,3.276-5.381c3.321,0,3.138,3.135,3.207,5.527h-4.975c0.037,1.383-0.201,4.039,1.847,4.039
		c1.397,0,1.78-1.291,1.692-2.453H58.432z M56.995,148.738c-0.058-1.195,0.017-3.098-1.679-3.098s-1.732,1.885-1.789,3.098H56.995z"
		/>
	<path fill="#005581" d="M65.228,154.933h-1.449v-10.248h1.398v1.309h0.037c0.474-0.865,1.36-1.586,2.43-1.586
		c1.09,0,1.97,0.646,2.434,1.625c0.722-1.053,1.458-1.625,2.75-1.625c0.695,0,1.341,0.242,1.878,0.721
		c0.659,0.607,0.622,1.75,0.622,2.396v7.408h-1.455v-7.502c0-1.145-0.313-1.791-1.563-1.791c-0.498,0.023-1.001,0.225-1.366,0.574
		c-0.589,0.535-0.662,1.125-0.662,1.861v6.857h-1.455v-7.502c0-1.068-0.35-1.791-1.531-1.791c-0.536,0-1.049,0.207-1.437,0.574
		c-0.589,0.535-0.63,1.125-0.63,1.861V154.933z"/>
	<path fill="#005581" d="M87.365,154.933c-0.111,0.018-0.222,0.035-0.331,0.07c-1.238,0.059-1.699-0.053-1.846-1.451h-0.04
		c-0.344,0.898-1.285,1.656-2.26,1.656c-2.048,0-2.634-1.143-2.634-3.004c0-0.387,0.052-1.861,1.474-2.486
		c0.828-0.369,2.89-1.145,3.076-1.293c0.31-0.238,0.272-0.645,0.272-1.18c0-1.16-0.436-1.605-1.619-1.605
		c-1.324,0-1.514,0.607-1.492,1.811h-1.307c-0.076-2.119,0.977-3.043,3.038-3.043c3.044,0,2.783,2.547,2.783,2.785v5.877
		c0,0.258-0.036,0.627,0.261,0.775c0.199,0.055,0.421,0.035,0.624,0.018V154.933z M84.966,149.402
		c-0.714,0.424-1.527,0.738-2.301,1.109c-0.685,0.311-0.901,1.066-0.901,1.768c0,1.031,0.254,1.695,1.436,1.695
		c0.554,0,1.767-0.422,1.767-2.082V149.402z"/>
	<path fill="#005581" d="M93.855,144.685h1.716v1.234H93.87v6.986c0,0.35-0.129,0.791,0.682,0.791h0.977v1.236h-1.603
		c-0.864,0.018-1.509-0.131-1.509-1.678v-7.336h-1.418v-1.234h1.418v-2.783h1.438V144.685z"/>
	<path fill="#005581" d="M100.247,142.953v-1.844h1.459v1.844H100.247z M100.247,154.933v-10.248h1.459v10.248H100.247z"/>
	<path fill="#005581" d="M108.299,150.251c0,1.344,0.092,3.723,1.955,3.723c1.583,0,1.734-1.365,1.809-2.619h1.38
		c-0.055,1.973-0.795,3.854-3.075,3.854c-3.132,0-3.578-2.617-3.578-5.273c0-2.504,0.402-5.527,3.539-5.527
		c2.064,0,3.06,1.605,3.04,3.504h-1.361c-0.019-1.125-0.317-2.271-1.697-2.271C108.192,145.64,108.299,148.794,108.299,150.251z"/>
	<path fill="#005581" d="M122.714,147.431c0.056-1.217-0.39-1.791-1.623-1.791c-1.032,0-1.62,0.482-1.62,1.553
		c0,1.328,1.087,1.49,2.08,1.916c1.477,0.664,2.948,1.031,2.948,2.949c0,1.951-1.36,3.17-3.46,3.15
		c-0.91,0.02-2.011-0.295-2.55-1.066c-0.606-0.814-0.569-1.496-0.569-2.197h1.384c-0.054,1.256,0.369,2.029,1.735,2.029
		c1.177,0,1.947-0.48,1.947-1.732c0-1.459-1.473-1.586-2.523-2.029c-1.586-0.588-2.509-1.123-2.509-2.91
		c0-1.77,1.237-2.895,3.011-2.895c2.021,0,3.203,0.924,3.166,3.023H122.714z"/>
	<path fill="#005581" d="M138.911,150.841c-1.526,0-2.784-1.289-2.784-2.818c0-1.549,1.258-2.842,2.784-2.842
		c1.547,0,2.803,1.293,2.803,2.842C141.713,149.552,140.458,150.841,138.911,150.841z"/>
	<path fill="#005581" d="M162.782,141.109h2.687v13.824h-1.527v-11.391c0-0.59,0.032-1.16,0-1.75h-0.036
		c-0.167,0.811-0.3,1.326-0.425,1.863l-2.892,11.277h-1.824l-2.899-11.445c-0.123-0.48-0.234-0.941-0.399-1.695h-0.037
		c0,0.59,0.037,1.197,0.037,1.787v11.354h-1.537v-13.824h2.711l2.715,10.783c0.143,0.59,0.221,1.16,0.294,2.047h0.037
		c0.092-0.701,0.179-1.385,0.35-2.068L162.782,141.109z"/>
	<path fill="#005581" d="M174.445,155.208c-2.213,0-3.663-1.328-3.663-5.75c0-3.096,1.142-5.051,3.663-5.051
		c2.525,0,3.671,1.955,3.671,5.051C178.116,153.9,176.698,155.208,174.445,155.208z M174.445,145.64
		c-1.489,0-2.156,1.182-2.156,4.279c0,2.412,0.46,4.055,2.156,4.055c1.734,0,2.157-1.643,2.157-4.055
		C176.602,146.822,175.972,145.64,174.445,145.64z"/>
	<path fill="#005581" d="M188.376,141.109h1.458v13.824h-1.4v-1.346H188.4c-0.63,1.215-1.257,1.621-2.49,1.621
		c-3.224,0-2.971-4.516-3.003-5.42c-0.113-3.002,0.883-5.381,3.076-5.381c1.048,0,1.676,0.443,2.357,1.328h0.036V141.109z
		 M188.376,149.642c0-1.4-0.036-4.002-1.99-4.002c-1.217,0-2.004,0.961-2.004,4.111c0,2.211,0.07,4.223,2.062,4.223
		c1.506,0,1.933-1.898,1.933-3.061V149.642z"/>
	<path fill="#005581" d="M201.411,151.521c0.089,2.01-0.941,3.688-3.097,3.688c-1.935,0-3.321-1.291-3.321-5.42
		c0-2.156,0.572-5.381,3.282-5.381c3.317,0,3.136,3.135,3.21,5.527h-4.977c0.031,1.383-0.207,4.039,1.841,4.039
		c1.401,0,1.788-1.291,1.692-2.453H201.411z M199.967,148.738c-0.051-1.195,0.023-3.098-1.67-3.098
		c-1.698,0-1.738,1.885-1.789,3.098H199.967z"/>
	<path fill="#005581" d="M206.679,154.933v-13.824h1.459v13.824H206.679z"/>
	<path fill="#005581" d="M213.74,142.953v-1.844h1.455v1.844H213.74z M213.74,154.933v-10.248h1.455v10.248H213.74z"/>
	<path fill="#005581" d="M222.234,145.808h0.037c0.701-0.883,1.457-1.4,2.566-1.4c1.527,0,2.521,0.811,2.521,2.617v7.908h-1.455
		v-7.502c0-1.068-0.352-1.791-1.527-1.791c-0.537,0-1.055,0.207-1.441,0.574c-0.588,0.535-0.664,1.125-0.664,1.861v6.857h-1.451
		v-10.248h1.414V145.808z"/>
	<path fill="#005581" d="M238.044,144.685h1.461v9.012c0,1.254-0.096,2.213-0.777,3.299c-0.645,1.012-1.697,1.42-2.816,1.42
		c-1.643,0-2.855-0.756-3.063-2.506h1.42c0.129,0.92,0.719,1.271,1.605,1.271c2.355,0,2.121-2.324,2.135-3.447h-0.037
		c-0.605,1.051-1.273,1.475-2.211,1.475c-1.938,0-3.277-1.346-3.277-5.475c0-2.156,0.535-5.326,3.242-5.326
		c0.938,0,1.789,0.461,2.283,1.439h0.035V144.685z M233.99,149.81c0,2.504,0.426,4.164,1.863,4.164c2.213,0,2.191-2.748,2.191-4.387
		c0-2.027-0.42-3.947-2.045-3.947C234.068,145.64,233.99,148.425,233.99,149.81z"/>
	<path fill="#005581" d="M254.468,150.841c-1.531,0-2.781-1.289-2.781-2.818c0-1.549,1.25-2.842,2.781-2.842
		c1.551,0,2.799,1.293,2.799,2.842C257.267,149.552,256.019,150.841,254.468,150.841z"/>
	<path fill="#005581" d="M275.458,144.742c0.113-1.438-0.658-2.525-2.189-2.525c-2.234,0-2.475,1.4-2.475,2.469
		c0,0.955,0.428,1.547,1.311,1.879c0.736,0.275,1.455,0.553,2.193,0.83c2.619,0.979,3.098,1.898,3.098,3.725
		c0,2.615-1.643,4.146-4.297,4.146c-1.363,0-2.986-0.387-3.777-2.195c-0.293-0.682-0.277-1.789-0.293-2.523h1.529
		c-0.076,2.045,0.316,3.334,2.617,3.334c1.553,0,2.637-0.791,2.637-2.412c0-2.104-0.846-2.119-2.252-2.654
		c-0.754-0.293-1.971-0.684-2.707-1.072c-1.311-0.66-1.639-1.766-1.639-3.131c0-2.285,1.602-3.775,3.848-3.775
		c2.525,0,4.072,1.307,3.926,3.906H275.458z"/>
	<path fill="#005581" d="M282.628,142.953v-1.844h1.457v1.844H282.628z M282.628,154.933v-10.248h1.457v10.248H282.628z"/>
	<path fill="#005581" d="M291.218,154.933h-1.457v-10.248h1.4v1.309h0.041c0.475-0.865,1.361-1.586,2.426-1.586
		c1.092,0,1.975,0.646,2.439,1.625c0.717-1.053,1.453-1.625,2.742-1.625c0.699,0,1.348,0.242,1.881,0.721
		c0.664,0.607,0.627,1.75,0.627,2.396v7.408h-1.455v-7.502c0-1.145-0.313-1.791-1.568-1.791c-0.502,0.023-0.994,0.225-1.359,0.574
		c-0.594,0.535-0.668,1.125-0.668,1.861v6.857h-1.455v-7.502c0-1.068-0.35-1.791-1.529-1.791c-0.537,0-1.049,0.207-1.439,0.574
		c-0.588,0.535-0.625,1.125-0.625,1.861V154.933z"/>
	<path fill="#005581" d="M312.025,153.587h-0.037c-0.498,1.051-1.438,1.621-2.434,1.621c-1.529,0-2.471-0.813-2.471-2.617v-7.906
		h1.457v7.961c0,0.867,0.281,1.328,1.313,1.328c0.697,0,1.342-0.314,1.746-0.904c0.334-0.516,0.426-1.215,0.426-1.807v-6.578h1.457
		v10.248h-1.457V153.587z"/>
	<path fill="#005581" d="M319.175,154.933v-13.824h1.457v13.824H319.175z"/>
	<path fill="#005581" d="M332.593,154.933c-0.111,0.018-0.221,0.035-0.33,0.07c-1.238,0.059-1.701-0.053-1.844-1.451h-0.037
		c-0.35,0.898-1.293,1.656-2.268,1.656c-2.043,0-2.633-1.143-2.633-3.004c0-0.387,0.055-1.861,1.473-2.486
		c0.828-0.369,2.895-1.145,3.078-1.293c0.313-0.238,0.277-0.645,0.277-1.18c0-1.16-0.443-1.605-1.625-1.605
		c-1.33,0-1.506,0.607-1.49,1.811h-1.313c-0.074-2.119,0.98-3.043,3.041-3.043c3.045,0,2.785,2.547,2.785,2.785v5.877
		c0,0.258-0.037,0.627,0.26,0.775c0.201,0.055,0.42,0.035,0.625,0.018V154.933z M330.199,149.402
		c-0.719,0.424-1.529,0.738-2.307,1.109c-0.68,0.311-0.9,1.066-0.9,1.768c0,1.031,0.258,1.695,1.436,1.695
		c0.557,0,1.771-0.422,1.771-2.082V149.402z"/>
	<path fill="#005581" d="M339.082,144.685h1.717v1.234h-1.701v6.986c0,0.35-0.129,0.791,0.684,0.791h0.977v1.236h-1.602
		c-0.869,0.018-1.514-0.131-1.514-1.678v-7.336h-1.418v-1.234h1.418v-2.783h1.439V144.685z"/>
	<path fill="#005581" d="M345.47,142.953v-1.844h1.459v1.844H345.47z M345.47,154.933v-10.248h1.459v10.248H345.47z"/>
	<path fill="#005581" d="M355.814,155.208c-2.211,0-3.664-1.328-3.664-5.75c0-3.096,1.143-5.051,3.664-5.051
		c2.525,0,3.672,1.955,3.672,5.051C359.486,153.9,358.062,155.208,355.814,155.208z M355.814,145.64c-1.492,0-2.16,1.182-2.16,4.279
		c0,2.412,0.461,4.055,2.16,4.055c1.729,0,2.156-1.643,2.156-4.055C357.97,146.822,357.345,145.64,355.814,145.64z"/>
	<path fill="#005581" d="M366.156,145.808h0.033c0.703-0.883,1.453-1.4,2.561-1.4c1.529,0,2.527,0.811,2.527,2.617v7.908h-1.457
		v-7.502c0-1.068-0.346-1.791-1.527-1.791c-0.535,0-1.051,0.207-1.438,0.574c-0.594,0.535-0.666,1.125-0.666,1.861v6.857h-1.453
		v-10.248h1.42V145.808z"/>
</g>
<g>
	<linearGradient id="SVGID_7_" gradientUnits="userSpaceOnUse" x1="82.7729" y1="62.4063" x2="82.7729" y2="119.9413">
		<stop  offset="0" style="stop-color:#FFFFFF"/>
		<stop  offset="1" style="stop-color:#005581"/>
	</linearGradient>
	<path fill="url(#SVGID_7_)" d="M62.978,104.007v4.445c0,5.268,1.248,8.713,3.711,10.219c2.531,1.555,5.35,2.344,8.383,2.344
		c2.297,0,4.295-0.463,5.941-1.379c1.656-0.918,3.02-2.324,4.064-4.17l1.025,0.225v4.334h16.465V93.388
		c0-0.674-0.008-1.303-0.012-1.941c-11.668,0.541-22.688,1.139-32.898,1.746c-2.326,1.051-3.914,2.008-4.717,2.854
		C63.638,97.417,62.978,100.093,62.978,104.007z M79.472,99.488c0.506-1.424,2.213-3.092,5.223-5.113l0.867-0.584v12.146
		c0,3.768-0.328,4.813-0.564,5.268c-0.443,0.824-1.352,1.242-2.705,1.242c-1.77,0-2.547-0.826-2.887-1.52
		c-0.428-0.895-0.645-2.734-0.645-5.641C78.761,102.755,78.99,100.861,79.472,99.488z"/>
	<linearGradient id="SVGID_8_" gradientUnits="userSpaceOnUse" x1="129.1509" y1="62.4043" x2="129.1509" y2="119.9403">
		<stop  offset="0" style="stop-color:#FFFFFF"/>
		<stop  offset="1" style="stop-color:#005581"/>
	</linearGradient>
	<path fill="url(#SVGID_8_)" d="M125.951,127.722v-13.369l0.98,1.168c1.518,1.822,3.215,3.209,5.031,4.125
		c1.811,0.906,3.801,1.369,5.922,1.369c2.66,0,4.959-0.592,6.836-1.766c1.85-1.162,3.094-2.738,3.693-4.697
		c0.621-2.025,0.938-5.506,0.938-10.352v-14.5c-5.764,0.158-11.43,0.338-17.002,0.533v15.15c0,2.963-0.148,4.795-0.451,5.607
		c-0.242,0.664-0.902,1.455-2.621,1.455c-1.74,0-2.467-0.842-2.771-1.541c-0.367-0.879-0.555-2.936-0.555-6.291V90.462
		c-5.787,0.215-11.467,0.445-17,0.691v36.568H125.951z"/>
	<linearGradient id="SVGID_9_" gradientUnits="userSpaceOnUse" x1="163.7993" y1="62.4053" x2="163.7993" y2="119.9424">
		<stop  offset="0" style="stop-color:#FFFFFF"/>
		<stop  offset="1" style="stop-color:#005581"/>
	</linearGradient>
	<path fill="url(#SVGID_9_)" d="M172.576,120.025V89.179c-5.928,0.104-11.779,0.229-17.553,0.375v30.471H172.576z"/>
	<linearGradient id="SVGID_10_" gradientUnits="userSpaceOnUse" x1="198.2905" y1="62.4038" x2="198.2905" y2="119.9414">
		<stop  offset="0" style="stop-color:#FFFFFF"/>
		<stop  offset="1" style="stop-color:#005581"/>
	</linearGradient>
	<path fill="url(#SVGID_10_)" d="M179.07,109.955c0.6,2.029,1.699,3.912,3.262,5.596c1.547,1.68,3.762,3.02,6.58,3.994
		c2.838,0.979,6.164,1.471,9.885,1.471c3.838,0,7.057-0.498,9.586-1.486c2.501-0.986,4.593-2.475,6.224-4.438
		c1.639-1.979,2.693-3.852,3.135-5.574c0.453-1.758,0.684-4.32,0.684-7.598v-3.508h-16.058v6.658c0,2.801-0.236,4.646-0.727,5.672
		c-0.361,0.771-1.229,1.705-3.186,1.705c-1.621,0-2.352-0.729-2.672-1.34c-0.42-0.783-0.627-2.402-0.627-4.955V93.937h23.269v-5.061
		c-13.667-0.063-27.13,0.018-40.269,0.213v11.807C178.156,104.865,178.458,107.908,179.07,109.955z"/>
	<linearGradient id="SVGID_11_" gradientUnits="userSpaceOnUse" x1="48.9443" y1="62.4038" x2="48.9443" y2="119.942">
		<stop  offset="0" style="stop-color:#FFFFFF"/>
		<stop  offset="1" style="stop-color:#005581"/>
	</linearGradient>
	<path fill="url(#SVGID_11_)" d="M57.044,120.052V93.978c-5.729,0.373-11.133,0.74-16.2,1.105l0.034,24.969H57.044z"/>
	<linearGradient id="SVGID_12_" gradientUnits="userSpaceOnUse" x1="8.0967" y1="62.4033" x2="8.0967" y2="119.9426">
		<stop  offset="0" style="stop-color:#FFFFFF"/>
		<stop  offset="1" style="stop-color:#005581"/>
	</linearGradient>
	<path fill="url(#SVGID_12_)" d="M16.169,120.052l0.024-23.078C9.2,97.554,3.723,98.044,0,98.388v21.664H16.169z"/>
	<linearGradient id="SVGID_13_" gradientUnits="userSpaceOnUse" x1="28.6602" y1="62.4038" x2="28.6602" y2="119.9421">
		<stop  offset="0" style="stop-color:#FFFFFF"/>
		<stop  offset="1" style="stop-color:#005581"/>
	</linearGradient>
	<path fill="url(#SVGID_13_)" d="M34.37,120.052l3.644-24.768c-6.979,0.508-13.243,0.994-18.707,1.436l3.676,23.332H34.37z"/>
</g>
<g>
	<path fill="none" d="M288.669,117.445c12.91,0,16.951-11.485,16.951-23.75c0-0.002,0-0.004,0-0.007
		c-11.316-0.876-22.626-1.595-33.878-2.178c-0.03,0.724-0.046,1.452-0.046,2.185C271.697,105.959,275.75,117.445,288.669,117.445z"
		/>
	<g>
		<g>
			<g>
				
					<linearGradient id="SVGID_14_" gradientUnits="userSpaceOnUse" x1="247.5806" y1="23.6147" x2="247.5806" y2="100.8299" gradientTransform="matrix(1 0 0 1 -6 16)">
					<stop  offset="0" style="stop-color:#FFFFFF"/>
					<stop  offset="1" style="stop-color:#000000"/>
				</linearGradient>
				<path fill="url(#SVGID_14_)" d="M246.757,90.431c-6.655-0.23-13.623-1.19-20.197-1.336c5.19,10.442,24.488,6.496,24.488,17.954
					c0,6.459-5.148,9.852-10.611,9.852c-6.137,0-10.842-4.594-12.379-7.548h-1.311c0,2.185-1.203,6.129-2.078,7.979
					c3.068,1.758,7.445,3.621,14.119,3.621c12.148,0,19.703-8.979,19.703-17.294C258.492,94.978,252.799,92.3,246.757,90.431z"/>
			</g>
		</g>
	</g>
	<g>
		<g>
			<g>
				
					<linearGradient id="SVGID_15_" gradientUnits="userSpaceOnUse" x1="294.6597" y1="25.5952" x2="294.6597" y2="100.93" gradientTransform="matrix(1 0 0 1 -6 16)">
					<stop  offset="0" style="stop-color:#FFFFFF"/>
					<stop  offset="1" style="stop-color:#000000"/>
				</linearGradient>
				<path fill="url(#SVGID_15_)" d="M305.621,93.688c0,0.003,0,0.005,0,0.007c0,12.265-4.041,23.75-16.951,23.75
					c-12.92,0-16.973-11.485-16.973-23.75c0-0.732,0.016-1.461,0.046-2.185c-3.198-0.165-6.391-0.319-9.577-0.464
					c-0.057,0.859-0.096,1.736-0.096,2.648c0,19.929,13.898,27.259,26.6,27.259c12.526,0,26.218-7.146,26.579-26.481
					C312.04,94.199,308.83,93.937,305.621,93.688z"/>
			</g>
		</g>
	</g>
	<g>
		<g>
			<g>
				
					<linearGradient id="SVGID_16_" gradientUnits="userSpaceOnUse" x1="333.2935" y1="25.5967" x2="333.2935" y2="100.9301" gradientTransform="matrix(1 0 0 1 -6 16)">
					<stop  offset="0" style="stop-color:#FFFFFF"/>
					<stop  offset="1" style="stop-color:#000000"/>
				</linearGradient>
				<path fill="url(#SVGID_16_)" d="M331.667,95.992c-2.754-0.275-5.509-0.541-8.266-0.795c-0.118,8.172-0.358,16.355-0.86,24.655
					c1.635-0.328,3.277-0.547,4.805-0.547c1.543,0,3.18,0.219,4.701,0.547C331.83,111.835,331.721,103.9,331.667,95.992z"/>
			</g>
		</g>
	</g>
	<g>
		<g>
			<g>
				
					<linearGradient id="SVGID_17_" gradientUnits="userSpaceOnUse" x1="371.8735" y1="25.5967" x2="371.8735" y2="100.9302" gradientTransform="matrix(1 0 0 1 -6 16)">
					<stop  offset="0" style="stop-color:#FFFFFF"/>
					<stop  offset="1" style="stop-color:#000000"/>
				</linearGradient>
				<path fill="url(#SVGID_17_)" d="M371.888,117.445c-8.648,0-8.861-8.313-8.861-16.519c0-0.431,0.002-0.882,0.004-1.343
					c-2.641-0.344-5.284-0.678-7.934-1.001c-0.099,3.205-0.17,6.051-0.17,8.686c0,8.541,4.371,13.686,13.455,13.686
					c2.74,0,5.908-0.771,8.438-1.648v-2.623C375.398,117.124,373.089,117.445,371.888,117.445z"/>
			</g>
		</g>
	</g>
</g>
</svg>
