<?xml version="1.0" encoding="UTF-8" standalone="no"?>
<!-- Created with Inkscape (http://www.inkscape.org/) -->

<svg
   width="2160"
   height="1080"
   viewBox="0 0 571.49999 285.75"
   version="1.1"
   id="svg1"
   xml:space="preserve"
   inkscape:export-filename="bestpracticesai.png"
   inkscape:export-xdpi="96"
   inkscape:export-ydpi="96"
   inkscape:version="1.3.2 (1:1.3.2+202311252150+091e20ef0f)"
   sodipodi:docname="best_practice_in_ai_afternoon_banner.svg"
   xmlns:inkscape="http://www.inkscape.org/namespaces/inkscape"
   xmlns:sodipodi="http://sodipodi.sourceforge.net/DTD/sodipodi-0.dtd"
   xmlns:xlink="http://www.w3.org/1999/xlink"
   xmlns="http://www.w3.org/2000/svg"
   xmlns:svg="http://www.w3.org/2000/svg"><sodipodi:namedview
     id="namedview1"
     pagecolor="#ffffff"
     bordercolor="#666666"
     borderopacity="1.0"
     inkscape:showpageshadow="2"
     inkscape:pageopacity="0.0"
     inkscape:pagecheckerboard="0"
     inkscape:deskcolor="#d1d1d1"
     inkscape:document-units="mm"
     inkscape:export-bgcolor="#ffffffff"
     inkscape:zoom="0.58128157"
     inkscape:cx="832.64295"
     inkscape:cy="444.70703"
     inkscape:window-width="2560"
     inkscape:window-height="1544"
     inkscape:window-x="0"
     inkscape:window-y="0"
     inkscape:window-maximized="1"
     inkscape:current-layer="layer1" /><defs
     id="defs1"><linearGradient
       id="linearGradient6"
       inkscape:collect="always"><stop
         style="stop-color:#440099;stop-opacity:1;"
         offset="0"
         id="stop6" /><stop
         style="stop-color:#440099;stop-opacity:0.79116142;"
         offset="1"
         id="stop7" /></linearGradient><style
       id="style1">.cls-1{fill:#fff;}</style><linearGradient
       inkscape:collect="always"
       xlink:href="#linearGradient6"
       id="linearGradient7"
       x1="-1.5799625"
       y1="142.60458"
       x2="571.27038"
       y2="142.60458"
       gradientUnits="userSpaceOnUse" /></defs><g
     inkscape:label="Layer 1"
     inkscape:groupmode="layer"
     id="layer1"><rect
       style="fill:url(#linearGradient7);fill-opacity:1;stroke:none;stroke-width:0.264582px;-inkscape-stroke:none;paint-order:stroke fill markers"
       id="rect3"
       width="572.85034"
       height="285.58957"
       x="-1.5799625"
       y="-0.19020581" /><g
       id="g187"
       transform="matrix(0.86765235,0,0,0.86834061,261.45708,-61.885102)"
       style="stroke-width:1.341"><path
         inkscape:export-ydpi="150"
         inkscape:export-xdpi="150"
         inkscape:connector-curvature="0"
         id="path939"
         d="m 217.06017,202.99686 6.42845,-3.73345 v -7.57648 l 32.78783,-18.93005 32.66638,18.85995 -0.0265,7.58514 6.5362,3.82993 v 7.40872 l -6.52585,3.76774 6.48562,3.78561 v 7.57591 l -6.49036,3.74724 6.55369,3.78379 v 7.49216 l -32.69475,18.87624 -6.58679,-3.80294 -6.43636,3.71604 -32.62449,-18.83575 v -7.47605 l 6.45093,-3.72439 -6.52409,-3.76667 z"
         style="fill:#000000;stroke:#000000;stroke-width:2.3554;stroke-linecap:square;stroke-linejoin:miter;stroke-miterlimit:4;stroke-dasharray:none;stroke-opacity:1" /><g
         transform="matrix(0.0988167,0,0,0.0988167,-453.88939,136.88711)"
         style="stroke:#000000;stroke-width:4.02201;stroke-linejoin:round;stroke-miterlimit:4;stroke-dasharray:none"
         id="g987"><path
           style="fill:#2b6138;fill-opacity:1;stroke:#000000;stroke-width:4.02201;stroke-linecap:butt;stroke-linejoin:round;stroke-miterlimit:4;stroke-dasharray:none;stroke-opacity:1"
           d="m 7122.142,483.11231 64.3511,-37.15321 v 74.18701 z"
           id="path941"
           inkscape:connector-curvature="0"
           inkscape:export-xdpi="150"
           inkscape:export-ydpi="150" /><path
           style="fill:#337343;fill-opacity:1;stroke:#000000;stroke-width:4.02201;stroke-linecap:butt;stroke-linejoin:round;stroke-miterlimit:4;stroke-dasharray:none;stroke-opacity:1"
           d="m 7186.4931,445.9591 193.9868,111.99841 -64.0393,36.9731 -129.9475,-75.0252 z"
           id="path943"
           inkscape:connector-curvature="0"
           inkscape:export-xdpi="150"
           inkscape:export-ydpi="150" /><path
           sodipodi:nodetypes="ccccc"
           inkscape:connector-curvature="0"
           id="path945"
           d="m 6796.5145,670.87531 64,-37.0305 325.0001,187.28208 -64.0001,37.9344 z"
           style="fill:#1395ba;fill-opacity:1;stroke:#000000;stroke-width:4.02201;stroke-linecap:butt;stroke-linejoin:round;stroke-miterlimit:4;stroke-dasharray:none;stroke-opacity:1"
           inkscape:export-xdpi="150"
           inkscape:export-ydpi="150" /><path
           inkscape:connector-curvature="0"
           id="path947"
           d="m 6860.5145,633.84481 v -75.2885 l 66.5,38.3938 v 75.6352 z"
           style="fill:#337343;fill-opacity:1;stroke:#000000;stroke-width:4.02201;stroke-linecap:butt;stroke-linejoin:round;stroke-miterlimit:4;stroke-dasharray:none;stroke-opacity:1"
           inkscape:export-xdpi="150"
           inkscape:export-ydpi="150" /><path
           inkscape:connector-curvature="0"
           id="path949"
           d="m 6927.0145,672.58531 64.6129,-37.3043 v -75.9847 l -64.9157,37.479 v 76.0131 z"
           style="fill:#2b6138;fill-opacity:1;stroke:#000000;stroke-width:4.02201;stroke-linecap:butt;stroke-linejoin:round;stroke-miterlimit:4;stroke-dasharray:none;stroke-opacity:1"
           inkscape:export-xdpi="150"
           inkscape:export-ydpi="150" /><path
           inkscape:connector-curvature="0"
           id="path951"
           d="m 6991.6274,559.29631 129.1194,74.5471 -64.7874,37.4051 -64.332,-37.1421 z"
           style="fill:#2f693d;fill-opacity:1;stroke:#000000;stroke-width:4.02201;stroke-linecap:butt;stroke-linejoin:round;stroke-miterlimit:4;stroke-dasharray:none;stroke-opacity:1"
           inkscape:export-xdpi="150"
           inkscape:export-ydpi="150" /><path
           inkscape:connector-curvature="0"
           id="path953"
           d="m 7055.3069,747.36121 v -76.4894 l 130.2077,75.1754 v 75.07968 z"
           style="fill:#337343;fill-opacity:1;stroke:#000000;stroke-width:4.02201;stroke-linecap:butt;stroke-linejoin:round;stroke-miterlimit:4;stroke-dasharray:none;stroke-opacity:1"
           inkscape:export-xdpi="150"
           inkscape:export-ydpi="150" /><path
           style="fill:#2b6138;fill-opacity:1;stroke:#000000;stroke-width:4.02201;stroke-linecap:butt;stroke-linejoin:round;stroke-miterlimit:4;stroke-dasharray:none;stroke-opacity:1"
           d="m 7185.5146,746.04721 65.9066,-38.0513 v 74.26758 l -65.9066,38.0512 z"
           id="path955"
           inkscape:connector-curvature="0"
           inkscape:export-xdpi="150"
           inkscape:export-ydpi="150" /><path
           style="fill:#2b6138;fill-opacity:1;stroke:#000000;stroke-width:4.02201;stroke-linecap:butt;stroke-linejoin:round;stroke-miterlimit:4;stroke-dasharray:none;stroke-opacity:1"
           d="m 7316.0672,670.67251 194.6124,-112.3595 v 74.9213 l -194.4074,112.2412 z"
           id="path957"
           inkscape:connector-curvature="0"
           inkscape:export-xdpi="150"
           inkscape:export-ydpi="150" /><path
           style="fill:#2b6138;fill-opacity:1;stroke:#000000;stroke-width:4.02201;stroke-linecap:butt;stroke-linejoin:round;stroke-miterlimit:4;stroke-dasharray:none;stroke-opacity:1"
           d="m 7120.7468,633.84341 65.1761,37.6295 v -75.6052 z"
           id="path959"
           inkscape:connector-curvature="0"
           inkscape:export-xdpi="150"
           inkscape:export-ydpi="150" /><path
           style="fill:#337343;fill-opacity:1;stroke:#000000;stroke-width:4.02201;stroke-linecap:butt;stroke-linejoin:round;stroke-miterlimit:4;stroke-dasharray:none;stroke-opacity:1"
           d="m 7185.9229,595.86771 130.1452,75.1394 v 74.4958 l -130.1452,-75.1394 z"
           id="path961"
           inkscape:connector-curvature="0"
           inkscape:export-xdpi="150"
           inkscape:export-ydpi="150" /><path
           style="fill:#d1b13c;fill-opacity:1;stroke:#000000;stroke-width:4.02201;stroke-linecap:butt;stroke-linejoin:round;stroke-miterlimit:4;stroke-dasharray:none;stroke-opacity:1"
           d="m 7185.5146,821.12689 65.2981,37.6999 324.8184,-187.53388 -65.4354,-37.7792 z"
           id="path963"
           inkscape:connector-curvature="0"
           inkscape:export-xdpi="150"
           inkscape:export-ydpi="150" /><path
           style="fill:#b89b35;fill-opacity:1;stroke:#000000;stroke-width:4.02201;stroke-linecap:butt;stroke-linejoin:round;stroke-miterlimit:4;stroke-dasharray:none;stroke-opacity:1"
           d="m 7185.5146,820.31469 v 374.01421 l 65.5634,37.8532 V 858.67369 Z"
           id="path965"
           inkscape:connector-curvature="0"
           inkscape:export-xdpi="150"
           inkscape:export-ydpi="150" /><path
           style="fill:#ebc844;fill-opacity:1;stroke:#000000;stroke-width:4.02201;stroke-linecap:butt;stroke-linejoin:round;stroke-miterlimit:4;stroke-dasharray:none;stroke-opacity:1"
           d="m 7251.078,858.67369 324.5531,-187.38088 v 73.6216 l -259.7765,149.98208 v 74.8275 l 259.3763,-149.751 v 75.2829 l -259.1314,149.60951 v 75.2 l 259.7603,-149.97261 v 74.45071 l -324.8907,187.5758 z"
           id="path967"
           inkscape:connector-curvature="0"
           inkscape:export-xdpi="150"
           inkscape:export-ydpi="150" /><path
           style="fill:#b89c35;fill-opacity:1;stroke:#000000;stroke-width:4.02201;stroke-linecap:butt;stroke-linejoin:round;stroke-miterlimit:4;stroke-dasharray:none;stroke-opacity:1"
           d="m 7575.2309,819.97299 -259.3763,149.751 v -74.8275 l 194.9275,-112.5415 z"
           id="path969"
           inkscape:connector-curvature="0"
           inkscape:export-xdpi="150"
           inkscape:export-ydpi="150" /><path
           style="fill:#b89c35;fill-opacity:1;stroke:#000000;stroke-width:4.02201;stroke-linecap:butt;stroke-linejoin:round;stroke-miterlimit:4;stroke-dasharray:none;stroke-opacity:1"
           d="m 7575.8598,970.09279 -65.1251,-37.6 -194.6352,112.37261 v 75.2 z"
           id="path971"
           inkscape:connector-curvature="0"
           inkscape:export-xdpi="150"
           inkscape:export-ydpi="150" /><path
           style="fill:#15a9d4;fill-opacity:1;stroke:#000000;stroke-width:4.02201;stroke-linecap:butt;stroke-linejoin:round;stroke-miterlimit:4;stroke-dasharray:none;stroke-opacity:1"
           d="m 7121.5555,1231.2557 -324.1939,-187.1734 v -74.29061 l 258.9899,149.52791 v -74.0198 L 6796.6343,895.35199 V 670.80601 l 325.4777,187.91458 v 73.1635 l -260.068,-150.1504 v 75.479 l 259.273,149.69131 z"
           id="path973"
           inkscape:connector-curvature="0"
           inkscape:export-xdpi="150"
           inkscape:export-ydpi="150" /><path
           style="fill:#0e6c87;fill-opacity:1;stroke:#000000;stroke-width:4.02201;stroke-linecap:butt;stroke-linejoin:round;stroke-miterlimit:4;stroke-dasharray:none;stroke-opacity:1"
           d="m 6797.3616,969.79169 64.1031,-37.0099 194.8868,112.51801 v 74.0198 z"
           id="path975"
           inkscape:connector-curvature="0"
           inkscape:export-xdpi="150"
           inkscape:export-ydpi="150" /><path
           style="fill:#0e6c87;fill-opacity:1;stroke:#000000;stroke-width:4.02201;stroke-linecap:butt;stroke-linejoin:round;stroke-miterlimit:4;stroke-dasharray:none;stroke-opacity:1"
           d="m 6862.044,857.21269 v -75.479 l 65.3667,37.7395 z"
           id="path977"
           inkscape:connector-curvature="0"
           inkscape:export-xdpi="150"
           inkscape:export-ydpi="150" /><path
           inkscape:connector-curvature="0"
           id="path979"
           d="m 7121.317,1006.904 64.1976,-37.06441 v 224.48931 l -63.9591,36.9268 z"
           style="fill:#0e6c87;fill-opacity:1;stroke:#000000;stroke-width:4.02201;stroke-linecap:butt;stroke-linejoin:round;stroke-miterlimit:4;stroke-dasharray:none;stroke-opacity:1"
           inkscape:export-xdpi="150"
           inkscape:export-ydpi="150" /><path
           inkscape:connector-curvature="0"
           id="path981"
           d="m 7121.317,1006.904 -259.273,-149.69131 65.3667,-37.7395 258.1039,150.3664 z"
           style="fill:#0e6c87;fill-opacity:1;stroke:#000000;stroke-width:4.02201;stroke-linecap:butt;stroke-linejoin:round;stroke-miterlimit:4;stroke-dasharray:none;stroke-opacity:1"
           inkscape:export-xdpi="150"
           inkscape:export-ydpi="150" /><path
           inkscape:connector-curvature="0"
           id="path983"
           d="m 7122.112,931.88409 63.4026,-36.6055 v -74.1517 l -64.2584,37.0996 z"
           style="fill:#0e6c87;fill-opacity:1;stroke:#000000;stroke-width:4.02201;stroke-linecap:butt;stroke-linejoin:round;stroke-miterlimit:4;stroke-dasharray:none;stroke-opacity:1"
           inkscape:export-xdpi="150"
           inkscape:export-ydpi="150" /><path
           id="path985"
           d="m 7186.3329,370.4457 -118.0153,68.1357 -207.805,119.97561 66.1973,38.2187 64.916,-37.4785 129.0742,74.2285 65.6875,-37.9257 129.5937,74.8203 194.9609,-112.5606 z m -65.6328,263.08001 -0.2539,0.1465 0.2988,0.1719 0.2559,-0.1465 z m 0.045,0.3184 -64.7871,37.4062 129.5567,74.7969 64.787,-37.4043 z m 65.7481,-187.88481 193.9862,112.00001 -64.0391,36.9727 -194.2987,-111.8184 z"
           style="fill:#53b86c;fill-opacity:1;stroke:#000000;stroke-width:4.02201;stroke-linecap:butt;stroke-linejoin:round;stroke-miterlimit:4;stroke-dasharray:none;stroke-opacity:1"
           inkscape:connector-curvature="0"
           sodipodi:nodetypes="ccccccccccccccccccccccccc"
           inkscape:export-xdpi="150"
           inkscape:export-ydpi="150" /></g></g><text
       xml:space="preserve"
       style="font-size:57.3492px;line-height:125%;font-family:'Source Sans Pro';-inkscape-font-specification:'Source Sans Pro, Normal';letter-spacing:0px;word-spacing:0px;fill:#f9f9f9;stroke:#000000;stroke-width:0.264583px;stroke-linecap:butt;stroke-linejoin:miter;stroke-opacity:1"
       x="19.954639"
       y="54.784302"
       id="text1"><tspan
         sodipodi:role="line"
         style="font-style:normal;font-variant:normal;font-weight:normal;font-stretch:normal;font-family:'Source Sans Pro';-inkscape-font-specification:'Source Sans Pro';fill:#f9f9f9;fill-opacity:1;stroke:none;stroke-width:0.264583px"
         x="19.954639"
         y="54.784302"
         id="tspan5">Best </tspan><tspan
         sodipodi:role="line"
         style="font-style:normal;font-variant:normal;font-weight:normal;font-stretch:normal;font-family:'Source Sans Pro';-inkscape-font-specification:'Source Sans Pro';fill:#f9f9f9;fill-opacity:1;stroke:none;stroke-width:0.264583px"
         x="19.954639"
         y="126.4708"
         id="tspan8">Practices</tspan><tspan
         sodipodi:role="line"
         style="font-style:normal;font-variant:normal;font-weight:normal;font-stretch:normal;font-family:'Source Sans Pro';-inkscape-font-specification:'Source Sans Pro';fill:#f9f9f9;fill-opacity:1;stroke:none;stroke-width:0.264583px"
         x="19.954639"
         y="198.1573"
         id="tspan6">in AI </tspan><tspan
         sodipodi:role="line"
         style="font-style:normal;font-variant:normal;font-weight:normal;font-stretch:normal;font-family:'Source Sans Pro';-inkscape-font-specification:'Source Sans Pro';fill:#f9f9f9;fill-opacity:1;stroke:none;stroke-width:0.264583px"
         x="19.954639"
         y="269.84378"
         id="tspan7">Afternoon</tspan></text><g
       id="g6"
       transform="matrix(0.37015233,0,0,0.37015233,394.92058,15.145272)"
       style="stroke-width:0.714796"><path
         class="cls-1"
         d="M 31.81,81.74 V 80 l -3.41,2.48 -1.14,-1.57 h -0.01 c -2.24,2.28 -4.22,4.81 -5.87,7.53 l -0.02,0.03 h 0.04 c 3.1,-0.74 6.12,-1.84 8.97,-3.27 h 0.02 c 0,0 -1.14,-1.58 -1.14,-1.58 l 2.59,-1.88 z"
         id="path1"
         style="stroke-width:0.714796" /><polygon
         class="cls-1"
         points="76.44,49.31 82.42,44.97 84.59,45.31 91.99,40.99 88.63,40.45 91.05,38.69 90.23,37.56 87.8,39.32 88.33,35.96 81.94,41.65 81.59,43.83 74.05,49.31 "
         id="polygon1"
         style="stroke-width:0.714796" /><path
         class="cls-1"
         d="m 57.33,86.01 c 0,0 0,0 0,0 -0.68,0 -1.35,-0.1 -1.99,-0.29 L 39,97.59 37.86,96.02 h -0.01 c -2.24,2.28 -4.22,4.81 -5.87,7.53 l -0.02,0.03 H 32 c 3.1,-0.74 6.12,-1.84 8.97,-3.27 h 0.02 c 0,0 -1.14,-1.58 -1.14,-1.58 L 57.36,86.01 Z"
         id="path2"
         style="stroke-width:0.714796" /><polygon
         class="cls-1"
         points="82.86,67.47 93.02,60.08 95.2,60.43 102.59,56.11 99.23,55.57 101.65,53.81 100.83,52.68 98.41,54.44 98.94,51.08 92.54,56.77 92.2,58.95 82.86,65.73 "
         id="polygon2"
         style="stroke-width:0.714796" /><path
         class="cls-1"
         d="M 46.1,82.77 H 43.71 L 33.7,90.04 32.56,88.47 h -0.01 c -2.24,2.28 -4.22,4.81 -5.87,7.53 l -0.02,0.03 h 0.04 c 3.1,-0.74 6.12,-1.84 8.97,-3.27 h 0.02 c 0,0 -1.14,-1.58 -1.14,-1.58 l 11.58,-8.41 z"
         id="path3"
         style="stroke-width:0.714796" /><polygon
         class="cls-1"
         points="82.86,56.06 87.72,52.52 89.9,52.87 97.29,48.55 93.93,48.01 96.35,46.25 95.53,45.12 93.1,46.88 93.64,43.52 87.24,49.21 86.9,51.39 82.86,54.32 "
         id="polygon3"
         style="stroke-width:0.714796" /><path
         class="cls-1"
         d="m 77.63,15.33 c 0,0 -0.29,-0.04 -0.73,-0.05 0,0 0,0 0,0 -1.03,-0.02 -2.92,0.14 -4.18,1.37 -0.47,0.46 -0.62,1.09 -0.62,1.69 0,0 0,0 0,0 0,0.05 0,0.11 0,0.16 0,0.03 0,0.07 0,0.1 0,0.02 0,0.03 0,0.05 0,0.05 0,0.1 0.01,0.14 0,0 0,0 0,0 0.01,0.11 0.03,0.23 0.05,0.33 -0.18,-0.2 -0.41,-0.36 -0.68,-0.48 -2.1,-0.87 -4.41,0.25 -4.41,0.25 0,0 0.54,2.62 2.93,3.31 0.58,0.17 1.15,0.08 1.64,-0.08 l -0.5,0.89 c -0.64,1.14 -1.93,1.75 -3.22,1.52 -1.65,-0.3 -2.75,-1.9 -2.45,-3.55 l -0.69,-0.13 -0.69,-0.13 c -0.15,0.8 -0.6,1.5 -1.27,1.96 -0.67,0.46 -1.48,0.64 -2.28,0.49 -1.45,-0.27 -2.5,-1.53 -2.5,-3 v -1.9 c 0.41,0.45 0.99,0.88 1.74,0.88 2.28,0 3.98,-1.93 3.98,-1.93 0,0 -1.71,-1.93 -3.98,-1.93 -0.28,0 -0.53,0.06 -0.76,0.16 0.45,-0.43 0.81,-0.99 0.81,-1.66 0,-2.54 -2.49,-4.44 -2.49,-4.44 0,0 -2.49,1.9 -2.49,4.44 0,0.68 0.36,1.23 0.81,1.66 -0.23,-0.1 -0.48,-0.16 -0.76,-0.16 -2.28,0 -3.98,1.93 -3.98,1.93 0,0 1.71,1.93 3.98,1.93 0.75,0 1.33,-0.43 1.74,-0.88 v 1.9 c 0,1.47 -1.05,2.73 -2.5,3 -0.8,0.15 -1.61,-0.03 -2.28,-0.49 -0.67,-0.46 -1.12,-1.16 -1.27,-1.96 l -0.69,0.13 -0.69,0.13 c 0.3,1.65 -0.79,3.24 -2.45,3.55 -1.29,0.24 -2.58,-0.37 -3.22,-1.52 l -0.5,-0.89 c 0.48,0.16 1.06,0.25 1.64,0.08 2.39,-0.68 2.93,-3.31 2.93,-3.31 0,0 -2.31,-1.12 -4.41,-0.25 -0.27,0.11 -0.5,0.28 -0.68,0.48 0.02,-0.11 0.03,-0.22 0.05,-0.33 0,0 0,0 0,0 0,-0.05 0,-0.1 0.01,-0.14 0,-0.02 0,-0.03 0,-0.05 0,-0.03 0,-0.07 0,-0.1 0,-0.05 0,-0.11 0,-0.16 0,0 0,0 0,0 0,-0.61 -0.15,-1.23 -0.62,-1.69 -1.27,-1.24 -3.15,-1.39 -4.18,-1.37 0,0 0,0 0,0 -0.45,0 -0.73,0.05 -0.73,0.05 0,0 -0.06,0.5 -0.02,1.2 1.25,1.34 2.37,2.76 3.36,4.26 1.37,2.07 2.5,4.29 3.36,6.61 l 2.71,1.56 -1.48,2.57 c 0.24,1.06 0.42,2.15 0.56,3.24 v 0 c 0,0 0.04,0 0.06,0.01 v 0 c 0,0 0,0 0,0 3.83,0.78 7.75,1.18 11.73,1.18 v 0 c 0,0 0.01,0 0.02,0 0.01,0 0.01,0 0.02,0 v 0 c 3.98,0 7.9,-0.4 11.73,-1.18 0,0 0,0 0,0 v 0 c 0,0 0.04,0 0.06,-0.01 v 0 c 0.13,-1.09 0.32,-2.18 0.56,-3.24 l -1.48,-2.57 2.71,-1.56 c 0.86,-2.32 1.98,-4.54 3.36,-6.61 0.99,-1.5 2.12,-2.92 3.36,-4.26 0.04,-0.71 -0.02,-1.2 -0.02,-1.2 z M 64.09,26.22 c 0.97,0 1.76,0.79 1.76,1.76 0,0.97 -0.79,1.76 -1.76,1.76 -0.97,0 -1.76,-0.79 -1.76,-1.76 0,-0.97 0.79,-1.76 1.76,-1.76 z m -6.76,-1.83 2.49,2.49 -2.49,2.49 -2.49,-2.49 z m -6.77,1.83 c 0.97,0 1.76,0.79 1.76,1.76 0,0.97 -0.79,1.76 -1.76,1.76 -0.97,0 -1.76,-0.79 -1.76,-1.76 0,-0.97 0.79,-1.76 1.76,-1.76 z m 17.31,7.38 c -3.45,0.64 -6.97,0.97 -10.53,0.97 -3.56,0 -7.08,-0.32 -10.53,-0.96 -0.03,-0.2 -0.06,-0.39 -0.09,-0.58 3.48,-0.65 7.02,-0.98 10.62,-0.98 3.6,0 7.15,0.33 10.63,0.98 -0.03,0.19 -0.06,0.39 -0.09,0.58 z"
         id="path4"
         style="stroke-width:0.714796" /><polygon
         class="cls-1"
         points="31.63,28.4 38.03,34.1 38.37,36.27 57.33,50.04 76.29,36.27 76.64,34.1 83.03,28.4 82.5,31.76 84.92,30 85.75,31.13 83.33,32.9 86.69,33.43 79.29,37.75 77.12,37.41 57.33,51.78 37.54,37.41 35.37,37.75 27.98,33.43 31.34,32.9 28.91,31.13 29.74,30 32.16,31.76 "
         id="polygon4"
         style="stroke-width:0.714796" /><path
         class="cls-1"
         d="m 79.32,53.3 0.03,25.95 H 60.92 l -0.13,0.54 c -0.39,1.6 -1.8,2.71 -3.45,2.71 -1.65,0 -3.06,-1.11 -3.45,-2.71 L 53.76,79.25 H 35.33 L 35.36,53.3 h -1.43 v 27.36 h 18.76 c 0.71,1.94 2.55,3.25 4.65,3.25 2.1,0 3.95,-1.31 4.65,-3.25 H 80.75 V 53.3 Z"
         id="path5"
         style="stroke-width:0.714796" /><path
         class="cls-1"
         d="m 93.3,88.44 c -1.65,-2.72 -3.63,-5.25 -5.87,-7.52 h -0.01 c 0,0 -1.14,1.56 -1.14,1.56 L 82.87,80 v 1.74 l 2.59,1.88 -1.14,1.57 h 0.02 c 2.85,1.44 5.87,2.54 8.97,3.27 h 0.04 c 0,0 -0.02,-0.02 -0.02,-0.02 z"
         id="path6"
         style="stroke-width:0.714796" /><polygon
         class="cls-1"
         points="26.03,40.45 22.68,40.99 30.07,45.31 32.24,44.97 38.22,49.31 40.61,49.31 33.07,43.83 32.73,41.65 26.33,35.96 26.86,39.32 24.44,37.56 23.61,38.69 "
         id="polygon6"
         style="stroke-width:0.714796" /><polygon
         class="cls-1"
         points="17.37,48.55 24.77,52.87 26.94,52.52 31.81,56.06 31.81,54.32 27.77,51.39 27.42,49.21 21.03,43.52 21.56,46.88 19.14,45.12 18.31,46.25 20.73,48.01 "
         id="polygon7"
         style="stroke-width:0.714796" /><path
         class="cls-1"
         d="m 88,96 c -1.65,-2.72 -3.63,-5.25 -5.87,-7.52 h -0.01 c 0,0 -1.14,1.56 -1.14,1.56 L 70.97,82.77 h -2.39 l 11.58,8.41 -1.14,1.57 h 0.02 c 2.85,1.44 5.87,2.54 8.97,3.27 h 0.04 c 0,0 -0.02,-0.02 -0.02,-0.02 z"
         id="path7"
         style="stroke-width:0.714796" /><polygon
         class="cls-1"
         points="12.07,56.11 19.47,60.43 21.64,60.08 31.81,67.47 31.81,65.73 22.47,58.95 22.12,56.77 15.73,51.08 16.26,54.44 13.84,52.68 13.01,53.81 15.43,55.57 "
         id="polygon8"
         style="stroke-width:0.714796" /><path
         class="cls-1"
         d="m 76.83,96.04 h -0.01 c 0,0 -1.14,1.56 -1.14,1.56 L 59.34,85.73 c -0.64,0.19 -1.32,0.29 -1.99,0.29 0,0 0,0 0,0 l 17.51,12.72 -1.14,1.57 h 0.02 c 2.85,1.44 5.87,2.54 8.97,3.27 h 0.04 c 0,0 -0.02,-0.02 -0.02,-0.02 -1.65,-2.72 -3.63,-5.25 -5.87,-7.52 z"
         id="path8"
         style="stroke-width:0.714796" /><path
         class="cls-1"
         d="m 31.81,70.33 v -1.74 l -8.71,6.33 -1.14,-1.57 h -0.01 c -2.24,2.28 -4.22,4.81 -5.87,7.53 l -0.02,0.03 h 0.04 c 3.1,-0.74 6.12,-1.84 8.97,-3.27 h 0.02 c 0,0 -1.14,-1.58 -1.14,-1.58 l 7.89,-5.73 z"
         id="path9"
         style="stroke-width:0.714796" /><path
         class="cls-1"
         d="m 98.6,80.88 c -1.65,-2.72 -3.63,-5.25 -5.87,-7.52 h -0.01 c 0,0 -1.14,1.56 -1.14,1.56 l -8.71,-6.33 v 1.74 l 7.89,5.73 -1.14,1.57 h 0.02 c 2.85,1.44 5.87,2.54 8.97,3.27 h 0.04 c 0,0 -0.02,-0.02 -0.02,-0.02 z"
         id="path10"
         style="stroke-width:0.714796" /><path
         class="cls-1"
         d="m 66.83,114.77 c 0.22,-0.68 0.88,-2.7 1.1,-3.38 0.39,-1.21 -0.27,-2.52 -1.48,-2.91 l -3.19,-0.58 2.24,-2.35 c 0.75,-1.03 0.52,-2.48 -0.51,-3.23 -0.58,-0.42 -2.3,-1.67 -2.88,-2.09 -0.41,-0.3 -0.89,-0.44 -1.36,-0.44 -0.71,0 -1.42,0.33 -1.87,0.95 l -1.54,2.86 -1.54,-2.86 c -0.45,-0.62 -1.16,-0.95 -1.87,-0.95 -0.47,0 -0.95,0.14 -1.36,0.44 -0.58,0.42 -2.3,1.67 -2.88,2.09 -1.03,0.75 -1.26,2.2 -0.51,3.23 l 2.24,2.35 -3.19,0.58 c -1.21,0.39 -1.88,1.7 -1.48,2.91 0.22,0.68 0.88,2.7 1.1,3.38 0.32,0.98 1.22,1.6 2.2,1.6 0.24,0 0.48,-0.04 0.71,-0.11 l 2.92,-1.41 -0.43,3.22 c 0,1.28 1.03,2.31 2.31,2.31 h 3.55 c 1.28,0 2.31,-1.03 2.31,-2.31 l -0.43,-3.22 2.92,1.41 c 0.24,0.08 0.48,0.11 0.71,0.11 0.97,0 1.88,-0.62 2.2,-1.6 z m -7.23,-2.18 c -0.08,0 -0.17,0 -0.25,0 -0.4,1.58 -2.01,3.17 -2.01,3.17 0,0 -1.61,-1.58 -2.01,-3.17 -0.08,0 -0.17,0 -0.25,0 -1.58,0 -3.38,-0.94 -3.38,-0.94 0,0 1.01,-2.02 2.39,-2.89 -0.61,-1.52 -0.24,-3.74 -0.24,-3.74 0,0 2.23,0.34 3.49,1.38 1.25,-1.05 3.49,-1.38 3.49,-1.38 0,0 0.37,2.23 -0.24,3.74 1.38,0.87 2.39,2.89 2.39,2.89 0,0 -1.81,0.94 -3.38,0.94 z"
         id="path11"
         style="stroke-width:0.714796" /><circle
         class="cls-1"
         cx="57.34"
         cy="109.82"
         r="1.52"
         id="circle11"
         style="stroke-width:0.714796" /><path
         class="cls-1"
         d="m 47.75,106.99 0.1,-0.03 0.1,-0.02 0.34,-0.06 -0.24,-0.25 -0.07,-0.08 -0.06,-0.09 c -0.36,-0.5 -0.59,-1.06 -0.69,-1.65 -1.12,0.28 -2.04,0.75 -2.09,0.78 l -0.3,0.16 0.15,0.31 c 0.03,0.07 0.5,0.99 1.24,1.86 0.42,-0.41 0.93,-0.74 1.53,-0.93 z"
         id="path12"
         style="stroke-width:0.714796" /><path
         class="cls-1"
         d="m 57.07,99.83 0.06,0.09 0.05,0.09 0.16,0.3 0.16,-0.3 0.05,-0.09 0.06,-0.09 c 0.36,-0.49 0.83,-0.89 1.36,-1.16 -0.61,-0.97 -1.34,-1.7 -1.39,-1.75 l -0.24,-0.24 -0.24,0.24 c -0.05,0.05 -0.78,0.78 -1.39,1.75 0.53,0.27 1,0.67 1.36,1.16 z"
         id="path13"
         style="stroke-width:0.714796" /><path
         class="cls-1"
         d="m 69.54,105.6 c -0.05,-0.03 -0.98,-0.5 -2.1,-0.78 -0.09,0.58 -0.32,1.15 -0.69,1.65 l -0.06,0.09 -0.07,0.08 -0.24,0.25 0.34,0.06 0.1,0.02 0.1,0.03 c 0.6,0.19 1.11,0.52 1.53,0.93 0.74,-0.88 1.2,-1.8 1.24,-1.86 l 0.15,-0.31 z"
         id="path14"
         style="stroke-width:0.714796" /><path
         class="cls-1"
         d="m 64.63,117.93 c -0.41,0 -0.81,-0.06 -1.2,-0.19 l -0.1,-0.03 -0.09,-0.05 -0.31,-0.15 0.05,0.34 v 0.1 c 0,0 0.01,0.11 0.01,0.11 0,0.63 -0.15,1.22 -0.41,1.74 1.06,0.43 2.08,0.59 2.15,0.6 l 0.34,0.05 0.06,-0.34 c 0.01,-0.07 0.18,-1.09 0.09,-2.23 -0.19,0.03 -0.39,0.05 -0.59,0.05 z"
         id="path15"
         style="stroke-width:0.714796" /><path
         class="cls-1"
         d="m 51.69,118.07 v -0.21 c 0,0 0.06,-0.34 0.06,-0.34 l -0.31,0.15 -0.09,0.05 -0.1,0.03 c -0.39,0.13 -0.79,0.19 -1.2,0.19 -0.2,0 -0.39,-0.02 -0.59,-0.05 -0.08,1.14 0.08,2.16 0.09,2.23 l 0.06,0.34 0.34,-0.05 c 0.07,-0.01 1.09,-0.17 2.15,-0.6 -0.26,-0.52 -0.41,-1.12 -0.41,-1.74 z"
         id="path16"
         style="stroke-width:0.714796" /><path
         class="cls-1"
         d="m 53.87,62.89 c -0.3,0 -0.49,0.38 -0.52,1.08 h 0.57 c 0.31,0 0.39,-0.09 0.39,-0.41 0,-0.41 -0.17,-0.67 -0.45,-0.67 z"
         id="path17"
         style="stroke-width:0.714796" /><path
         class="cls-1"
         d="m 40.03,61.78 h -0.2 c -0.01,0.59 -0.01,1.18 -0.01,1.79 v 0.24 c 0,0.63 0,1.23 0.01,1.82 h 0.19 c 0.82,0 1.3,-0.72 1.3,-1.93 0,-1.21 -0.47,-1.93 -1.3,-1.93 z"
         id="path18"
         style="stroke-width:0.714796" /><path
         class="cls-1"
         d="M 52.02,50.71 H 36.75 v 25.77 h 15.27 c 1.85,0 3.5,0.84 4.61,2.15 V 55.32 c 0,-2.54 -2.07,-4.61 -4.61,-4.61 z M 44,60.7 c 0.38,0 0.67,0.27 0.67,0.64 0,0.37 -0.29,0.63 -0.67,0.63 -0.38,0 -0.67,-0.27 -0.67,-0.63 0,-0.36 0.29,-0.64 0.67,-0.64 z m -3.99,5.47 h -2.1 v -0.49 l 0.55,-0.06 c 0.01,-0.58 0.01,-1.17 0.01,-1.79 v -0.25 c 0,-0.58 0,-1.18 -0.01,-1.77 l -0.55,-0.06 v -0.49 h 2.23 c 1.57,0 2.55,0.94 2.55,2.45 0,1.51 -1.03,2.47 -2.68,2.47 z m 5.01,0 h -2.05 v -0.44 l 0.4,-0.09 c 0,-0.34 0,-0.78 0,-1.06 v -0.35 c 0,-0.39 0,-0.61 -0.02,-0.88 l -0.46,-0.07 v -0.37 l 1.6,-0.51 0.17,0.11 -0.02,1.09 v 0.97 c 0,0.29 0,0.73 0,1.08 l 0.37,0.07 v 0.44 z m 1.51,0.11 c -0.48,0 -0.91,-0.11 -1.3,-0.34 l -0.03,-0.02 0.02,-0.98 h 0.68 l 0.13,0.74 c 0.17,0.06 0.33,0.09 0.5,0.09 0.4,0 0.6,-0.13 0.6,-0.38 0,-0.19 -0.1,-0.33 -0.58,-0.47 l -0.4,-0.12 c -0.6,-0.18 -0.92,-0.57 -0.92,-1.14 0,-0.75 0.64,-1.25 1.58,-1.25 0.4,0 0.75,0.09 1.18,0.31 l 0.03,0.02 -0.06,0.88 h -0.68 l -0.15,-0.64 c -0.1,-0.03 -0.21,-0.05 -0.36,-0.05 -0.15,0 -0.5,0.03 -0.5,0.36 0,0.14 0.04,0.28 0.58,0.44 l 0.36,0.1 c 0.69,0.2 1.01,0.58 1.01,1.19 0,0.79 -0.64,1.27 -1.71,1.27 z m 5.34,-2.73 c -0.09,0.29 -0.26,0.42 -0.55,0.42 -0.21,0 -0.57,-0.1 -0.61,-0.74 l -0.05,-0.32 c 0,0 -0.06,0 -0.09,0 -0.38,0 -0.83,0.35 -0.83,1.33 0,0.79 0.36,1.26 0.97,1.26 0.3,0 0.55,-0.12 0.78,-0.39 l 0.03,-0.04 0.33,0.29 -0.02,0.04 c -0.29,0.59 -0.82,0.91 -1.55,0.91 -1.3,0 -1.88,-0.96 -1.88,-1.92 0,-1.15 0.83,-1.95 2.03,-1.95 0.77,0 1.36,0.47 1.42,1.12 v 0 c 0,0 0,0.02 0,0.02 z m 2.42,1.93 c 0.33,0 0.6,-0.12 0.85,-0.38 l 0.04,-0.04 0.32,0.3 -0.02,0.04 c -0.3,0.59 -0.84,0.88 -1.58,0.88 -1.14,0 -1.88,-0.76 -1.88,-1.93 0,-1.27 0.97,-1.94 1.93,-1.94 0.96,0 1.57,0.63 1.57,1.6 0,0.15 -0.01,0.27 -0.05,0.4 v 0.04 h -2.11 c 0.06,0.65 0.39,1.02 0.93,1.02 z"
         id="path19"
         style="stroke-width:0.714796" /><path
         class="cls-1"
         d="m 62.12,61.78 h -0.2 c -0.01,0.59 -0.01,1.18 -0.01,1.79 v 0.24 c 0,0.63 0,1.23 0.01,1.82 h 0.19 c 0.82,0 1.3,-0.72 1.3,-1.93 0,-1.21 -0.47,-1.93 -1.3,-1.93 z"
         id="path20"
         style="stroke-width:0.714796" /><path
         class="cls-1"
         d="m 66.95,62.9 c -0.39,0 -0.57,0.46 -0.57,1.45 0,1.29 0.33,1.44 0.57,1.44 0.38,0 0.56,-0.46 0.56,-1.44 0,-0.98 -0.18,-1.45 -0.56,-1.45 z"
         id="path21"
         style="stroke-width:0.714796" /><path
         class="cls-1"
         d="m 62.64,50.71 c -2.54,0 -4.61,2.07 -4.61,4.61 v 23.31 c 1.1,-1.31 2.76,-2.15 4.61,-2.15 H 77.91 V 50.71 Z M 62.1,66.16 H 60 v -0.49 l 0.55,-0.06 c 0.01,-0.58 0.01,-1.17 0.01,-1.79 v -0.25 c 0,-0.58 0,-1.18 -0.01,-1.77 L 60,61.74 v -0.49 h 2.23 c 1.57,0 2.55,0.94 2.55,2.45 0,1.51 -1.03,2.47 -2.68,2.47 z m 4.85,0.11 c -1.16,0 -1.91,-0.77 -1.91,-1.95 0,-1.11 0.8,-1.92 1.91,-1.92 1.11,0 1.91,0.79 1.91,1.92 0,1.13 -0.75,1.95 -1.91,1.95 z m 5.58,-2.73 c -0.09,0.29 -0.26,0.42 -0.55,0.42 -0.21,0 -0.57,-0.1 -0.61,-0.74 L 71.32,62.9 c 0,0 -0.06,0 -0.09,0 -0.38,0 -0.83,0.35 -0.83,1.33 0,0.79 0.36,1.26 0.97,1.26 0.3,0 0.55,-0.12 0.78,-0.39 l 0.03,-0.04 0.32,0.29 -0.02,0.04 c -0.29,0.59 -0.82,0.91 -1.55,0.91 -1.3,0 -1.88,-0.96 -1.88,-1.92 0,-1.15 0.83,-1.95 2.03,-1.95 0.77,0 1.37,0.47 1.42,1.12 v 0 c 0,0 0,0.02 0,0.02 z m 2.42,1.93 c 0.33,0 0.6,-0.12 0.85,-0.38 l 0.04,-0.04 0.32,0.3 -0.02,0.04 c -0.3,0.59 -0.84,0.88 -1.58,0.88 -1.14,0 -1.88,-0.76 -1.88,-1.93 0,-1.27 0.97,-1.94 1.93,-1.94 0.96,0 1.57,0.63 1.57,1.6 0,0.15 -0.01,0.27 -0.05,0.4 v 0.04 h -2.11 c 0.06,0.65 0.39,1.02 0.93,1.02 z"
         id="path22"
         style="stroke-width:0.714796" /><path
         class="cls-1"
         d="m 74.54,62.89 c -0.3,0 -0.49,0.38 -0.52,1.08 h 0.57 c 0.31,0 0.39,-0.09 0.39,-0.41 0,-0.41 -0.17,-0.67 -0.45,-0.67 z"
         id="path23"
         style="stroke-width:0.714796" /><path
         class="cls-1"
         d="m 318.95,76.92 c 3.35,0 5.98,-2.39 5.98,-5.66 0,-3.27 -2.63,-5.74 -5.98,-5.74 -3.35,0 -6.06,2.31 -6.06,5.74 0,3.43 2.63,5.66 6.06,5.66 z"
         id="path24"
         style="stroke-width:0.714796" /><path
         class="cls-1"
         d="m 154.61,15.68 h 12.84 v 2.51 l -4.55,0.54 v 17.55 c 0,11.29 -5.35,15.79 -13.43,15.79 -8.08,0 -13.32,-4.12 -13.32,-14.29 v -5.83 c 0,-4.39 0,-8.88 -0.11,-13.32 l -4.17,-0.43 v -2.51 h 16.27 v 2.51 l -4.92,0.54 c -0.11,4.33 -0.11,8.78 -0.11,13.22 v 4.17 c 0,8.72 3,11.61 8.24,11.61 5.24,0 8.45,-3.32 8.45,-12.15 v -16.8 l -5.19,-0.59 v -2.51 z"
         id="path25"
         style="stroke-width:0.714796" /><path
         class="cls-1"
         d="m 168.1,48.96 3.48,-0.7 c 0.05,-2.62 0.05,-6.05 0.05,-8.35 v -2.84 c 0,-2.94 -0.05,-4.28 -0.16,-6.42 l -3.75,-0.48 v -2.03 l 8.94,-3.37 0.86,0.54 0.37,4.12 c 2.73,-3.1 5.83,-4.66 9.1,-4.66 4.66,0 7.28,2.94 7.28,9.58 v 5.56 c 0,2.41 0,5.78 0.05,8.4 l 3.26,0.64 v 2.19 h -13.22 v -2.19 l 3.42,-0.7 c 0.05,-2.62 0.05,-5.94 0.05,-8.35 v -5.08 c 0,-4.17 -1.07,-5.56 -3.75,-5.56 -1.87,0 -3.85,0.86 -5.99,2.62 v 8.03 c 0,2.35 0,5.73 0.05,8.4 l 3.16,0.64 v 2.19 h -13.22 v -2.19 z"
         id="path26"
         style="stroke-width:0.714796" /><path
         class="cls-1"
         d="m 200.3,48.96 3.53,-0.7 c 0.05,-2.62 0.05,-6.05 0.05,-8.35 V 37.4 c 0,-2.94 -0.05,-4.6 -0.16,-6.74 l -3.8,-0.48 v -2.03 l 9.63,-3.37 0.86,0.54 -0.16,7.54 v 7.06 c 0,2.3 0,5.73 0.05,8.4 l 3.26,0.64 v 2.19 h -13.27 v -2.19 z"
         id="path27"
         style="stroke-width:0.714796" /><path
         class="cls-1"
         d="m 230.89,25.53 h 10.17 v 2.25 l -3,0.64 -8.78,22.96 h -3.16 l -9.69,-23.12 -2.78,-0.48 v -2.25 h 14.07 v 2.25 l -4.12,0.64 5.89,15.52 5.3,-15.46 -3.91,-0.7 v -2.25 z"
         id="path28"
         style="stroke-width:0.714796" /><path
         class="cls-1"
         d="m 241.47,38.48 c 0,-8.56 6.26,-13.7 13,-13.7 6.31,0 10.49,4.28 10.49,10.76 0,1.23 -0.11,2.14 -0.32,2.94 h -16.37 c 0.27,6.15 3.53,9.2 8.03,9.2 3.16,0 5.19,-1.39 6.96,-3.37 l 1.55,1.39 c -2.09,3.96 -5.73,6.21 -10.7,6.21 -7.49,0 -12.63,-5.03 -12.63,-13.43 z m 6.85,-2.51 h 7.33 c 2.57,0 3.21,-1.12 3.21,-3.05 0,-3.26 -2.14,-5.56 -4.76,-5.56 -2.62,0 -5.35,2.25 -5.78,8.61 z"
         id="path29"
         style="stroke-width:0.714796" /><path
         class="cls-1"
         d="m 291.36,49.66 -0.05,-6.21 h 3.59 l 0.96,4.98 c 1.28,0.54 2.62,0.8 4.17,0.8 3.64,0 5.4,-1.34 5.4,-3.64 0,-1.98 -1.28,-3.1 -4.71,-4.23 l -2.68,-0.91 c -4.01,-1.28 -6.47,-3.75 -6.47,-7.54 0,-4.44 3.59,-8.13 10.17,-8.13 3.05,0 5.46,0.8 7.97,2.19 l -0.27,5.62 h -3.53 l -0.96,-4.49 c -1.02,-0.43 -2.03,-0.64 -3.32,-0.64 -2.84,0 -4.49,1.28 -4.49,3.37 0,1.93 1.07,2.89 4.71,4.12 l 2.14,0.64 c 5.19,1.77 7.22,4.39 7.22,8.08 0,4.82 -4.01,8.24 -11.24,8.24 -3.26,0 -5.89,-0.75 -8.61,-2.25 z"
         id="path30"
         style="stroke-width:0.714796" /><path
         class="cls-1"
         d="m 313.4,48.96 3.53,-0.7 c 0.05,-2.62 0.05,-6.05 0.05,-8.35 V 37.4 c 0,-2.94 -0.05,-4.6 -0.16,-6.74 l -3.8,-0.48 v -2.03 l 9.63,-3.37 0.86,0.54 -0.16,7.54 v 7.06 c 0,2.3 0,5.73 0.05,8.4 l 3.26,0.64 v 2.19 h -13.27 v -2.19 z"
         id="path31"
         style="stroke-width:0.714796" /><path
         class="cls-1"
         d="m 330.97,45.17 c 0,-1.61 0.05,-2.89 0.05,-4.98 v -11.4 h -3.96 v -2.78 l 4.33,-0.54 2.03,-7.33 h 4.33 l -0.21,7.38 h 6.42 v 3.26 h -6.47 v 15.79 c 0,2.62 1.12,3.8 2.84,3.8 1.07,0 2.03,-0.43 3.26,-1.34 l 1.28,1.34 c -1.39,2.25 -3.75,3.53 -7.06,3.53 -4.28,0 -6.85,-2.03 -6.85,-6.74 z"
         id="path32"
         style="stroke-width:0.714796" /><path
         class="cls-1"
         d="m 386.67,38.37 c 0,-8.56 5.99,-13.59 12.9,-13.59 6.91,0 12.95,4.98 12.95,13.59 0,8.61 -5.73,13.54 -12.95,13.54 -7.22,0 -12.9,-5.03 -12.9,-13.54 z m 18.84,0.05 c 0,-7.38 -2.09,-11.02 -5.94,-11.02 -3.85,0 -5.89,3.64 -5.89,11.02 0,7.38 2.03,10.86 5.89,10.86 3.86,0 5.94,-3.48 5.94,-10.86 z"
         id="path33"
         style="stroke-width:0.714796" /><path
         class="cls-1"
         d="m 133,120.78 0.48,-11.48 h 6.14 l 1.59,9.65 c 2.47,1.12 4.86,1.67 8.05,1.67 6.62,0 10.61,-3.35 10.61,-8.61 0,-4.71 -2.55,-6.86 -8.37,-9.25 l -3.27,-1.36 c -8.77,-3.75 -14.27,-8.45 -14.27,-16.91 0,-9.41 7.74,-15.07 18.9,-15.07 5.5,0 10.37,1.59 14.04,4.15 l -0.56,10.77 h -6.06 l -1.59,-9.25 c -1.91,-0.88 -3.75,-1.28 -5.98,-1.28 -5.34,0 -9.57,2.95 -9.57,8.13 0,4.63 2.95,7.18 8.21,9.33 l 3.43,1.44 c 10.37,4.39 14.43,8.85 14.43,16.67 0,9.41 -7.5,15.63 -19.86,15.63 -5.98,0 -12.2,-1.59 -16.35,-4.23 z"
         id="path34"
         style="stroke-width:0.714796" /><path
         class="cls-1"
         d="m 172.13,120.39 5.26,-1.04 c 0.08,-3.91 0.08,-9.01 0.08,-12.44 V 72.7 l -5.82,-0.8 v -3.11 l 14.27,-3.59 1.2,0.72 -0.32,11.24 v 14.27 c 4.07,-4.71 8.77,-7.1 13.64,-7.1 6.94,0 10.93,4.39 10.93,14.27 v 8.29 c 0,3.59 0,8.61 0.08,12.52 l 4.86,0.96 v 3.27 h -19.7 v -3.27 l 5.1,-1.04 c 0.08,-3.91 0.08,-8.85 0.08,-12.44 v -7.58 c 0,-6.22 -1.52,-8.29 -5.5,-8.29 -3.03,0 -5.98,1.44 -9.25,4.55 v 11.32 c 0,3.51 0,8.53 0.08,12.52 l 4.71,0.96 v 3.27 h -19.7 v -3.27 z"
         id="path35"
         style="stroke-width:0.714796" /><path
         class="cls-1"
         d="m 218.72,104.76 c 0,-12.76 9.33,-20.42 19.38,-20.42 9.41,0 15.63,6.38 15.63,16.03 0,1.83 -0.16,3.19 -0.48,4.39 h -24.4 c 0.4,9.17 5.26,13.72 11.96,13.72 4.71,0 7.74,-2.07 10.37,-5.02 l 2.31,2.07 c -3.11,5.9 -8.53,9.25 -15.95,9.25 -11.16,0 -18.82,-7.5 -18.82,-20.02 z m 10.21,-3.75 h 10.93 c 3.83,0 4.78,-1.67 4.78,-4.55 0,-4.86 -3.19,-8.29 -7.1,-8.29 -3.91,0 -7.97,3.35 -8.61,12.84 z"
         id="path36"
         style="stroke-width:0.714796" /><path
         class="cls-1"
         d="m 329.93,104.76 c 0,-12.76 9.33,-20.42 19.38,-20.42 9.41,0 15.63,6.38 15.63,16.03 0,1.83 -0.16,3.19 -0.48,4.39 h -24.4 c 0.4,9.17 5.26,13.72 11.96,13.72 4.71,0 7.74,-2.07 10.37,-5.02 l 2.31,2.07 c -3.11,5.9 -8.53,9.25 -15.95,9.25 -11.16,0 -18.82,-7.5 -18.82,-20.02 z m 10.21,-3.75 h 10.93 c 3.83,0 4.78,-1.67 4.78,-4.55 0,-4.86 -3.19,-8.29 -7.1,-8.29 -3.91,0 -7.97,3.35 -8.61,12.84 z"
         id="path37"
         style="stroke-width:0.714796" /><path
         class="cls-1"
         d="m 367.8,120.39 5.42,-1.04 c 0.08,-4.15 0.16,-8.29 0.16,-12.44 V 72.7 l -5.82,-0.8 v -3.11 l 14.51,-3.59 1.2,0.72 -0.32,11.24 v 29.75 c 0,4.15 0.08,8.29 0.16,12.44 l 5.42,1.04 v 3.27 H 367.8 Z"
         id="path38"
         style="stroke-width:0.714796" /><path
         class="cls-1"
         d="m 418.05,119.51 c -2.95,3.43 -6.46,5.26 -11.16,5.26 -9.41,0 -16.11,-7.58 -16.11,-19.86 0,-12.28 7.89,-20.57 17.3,-20.57 4.07,0 7.18,1.44 10.05,4.78 V 72.69 l -6.22,-0.8 v -3.11 l 14.59,-3.59 1.2,0.72 -0.32,11.24 v 42.35 l 5.18,0.88 v 3.27 l -13.88,0.88 -0.64,-5.02 z m -7.34,-0.4 c 2.79,0 4.94,-1.12 7.02,-3.27 V 92.95 c -2.47,-2.15 -4.55,-3.03 -6.94,-3.03 -5.34,0 -9.81,4.63 -9.81,14.83 0,9.65 4.07,14.35 9.73,14.35 z"
         id="path39"
         style="stroke-width:0.714796" /><path
         class="cls-1"
         d="m 285.74,24.78 c -3.53,-0.08 -6.14,2.05 -8.01,6.85 l -0.54,-6.31 -0.86,-0.54 -8.94,3.37 v 2.03 l 3.75,0.48 c 0.11,2.14 0.16,3.48 0.16,6.42 v 2.84 c 0,2.3 0,5.73 -0.05,8.4 l -3.42,0.64 v 2.19 h 14.39 v -2.19 l -4.39,-0.86 c -0.05,-2.62 -0.05,-5.94 -0.05,-8.19 V 36 c 0.8,-2.84 2.37,-5.36 4.32,-6.78 v 0 c 0.4,1.55 1.85,2.61 3.64,2.61 2.07,0 3.7,-1.48 3.7,-3.51 0,-2.03 -1.63,-3.51 -3.7,-3.56 z"
         id="path40"
         style="stroke-width:0.714796" /><path
         class="cls-1"
         d="m 323.9,119.43 c -0.08,-3.99 -0.08,-9.01 -0.08,-12.52 V 96.38 l 0.23,-12.43 -1.19,-0.71 -8.95,2.21 h -15.57 c 0,0 0,-5.85 0,-7.9 0,-2.05 0.13,-6.39 2.99,-7.96 0,0 -0.41,0.73 -0.34,2.07 0.16,2.3 2.08,3.96 4.55,3.96 2.47,0 4.5,-1.8 4.5,-4.26 0,-2.29 -1.86,-5.83 -7.32,-5.83 -4.8,0 -13.73,2.49 -13.73,19.67 v 0.26 h -16.53 c 0,0 0,-5.85 0,-7.9 0,-2.05 0.13,-6.39 2.99,-7.96 0,0 -0.41,0.73 -0.34,2.07 0.16,2.3 2.08,3.96 4.55,3.96 2.47,0 4.5,-1.8 4.5,-4.26 0,-2.29 -1.86,-5.83 -7.32,-5.83 -4.8,0 -13.73,2.49 -13.73,19.67 v 0.18 l -6.06,0.8 v 4.15 h 5.9 v 16.59 c 0,4.15 -0.08,8.29 -0.16,12.44 l -5.34,1.04 v 3.27 h 21.53 v -3.27 l -6.22,-1.2 C 272.68,115.14 272.6,111 272.6,106.93 V 90.34 h 16.21 v 16.59 c 0,4.15 -0.08,8.29 -0.16,12.44 l -5.34,1.04 v 3.27 h 21.53 v -3.27 l -6.22,-1.2 c -0.08,-4.07 -0.16,-8.21 -0.16,-12.28 V 90.34 h 15.45 c 0.14,3.29 0.21,6.88 0.21,11.72 v 4.86 c 0,3.43 0,8.53 -0.08,12.44 l -5.18,1.04 v 3.27 h 19.78 v -3.27 l -4.78,-0.96 z"
         id="path41"
         style="stroke-width:0.714796" /><path
         class="cls-1"
         d="m 364.28,25.53 v 2.14 l 4.07,0.64 -5.83,16.32 -5.99,-16.37 4.23,-0.59 v -2.14 h -14.02 v 2.14 l 2.73,0.43 10.17,24.77 -0.11,0.32 c -0.96,2.73 -2.35,5.19 -4.28,7.01 -0.31,-1.6 -1.69,-2.64 -3.4,-2.64 -1.99,0 -3.51,1.34 -3.51,3.33 0,1.99 1.52,3.28 3.51,3.28 h 0.08 c 4.66,0 7.38,-3.85 10.49,-12.04 l 9.15,-23.86 3,-0.59 V 25.54 H 364.3 Z"
         id="path42"
         style="stroke-width:0.714796" /><path
         class="cls-1"
         d="m 431.03,25.53 h -6.49 c 0,0 0,-4.13 0,-5.51 0,-1.38 0.09,-4.31 2.02,-5.38 0,0 -0.27,0.49 -0.23,1.4 0.11,1.56 1.4,2.67 3.08,2.67 1.68,0 3.04,-1.22 3.04,-2.88 0,-1.54 -1.25,-3.94 -4.94,-3.94 -3.24,0 -9.27,1.68 -9.27,13.29 v 0.35 l -4.09,0.54 v 2.73 h 3.99 v 11.05 c 0,2.8 -0.05,5.6 -0.11,8.4 l -3.61,0.7 v 2.21 h 14.54 v -2.21 l -4.2,-0.81 c -0.05,-2.75 -0.11,-5.55 -0.11,-8.3 V 28.79 h 6.38 z"
         id="path43"
         style="stroke-width:0.714796" /><path
         class="cls-1"
         d="m 316.07,16 c 0,-2.3 1.77,-3.85 4.07,-3.85 2.3,0 4.01,1.55 4.01,3.85 0,2.3 -1.77,3.8 -4.01,3.8 -2.24,0 -4.07,-1.61 -4.07,-3.8 z"
         id="path44"
         style="stroke-width:0.714796" /><path
         class="cls-1"
         d="m 202.98,16 c 0,-2.3 1.77,-3.85 4.07,-3.85 2.3,0 4.01,1.55 4.01,3.85 0,2.3 -1.77,3.8 -4.01,3.8 -2.24,0 -4.07,-1.61 -4.07,-3.8 z"
         id="path45"
         style="stroke-width:0.714796" /><path
         class="cls-1"
         d="m 57.33,3.69 c 18.6,0 36.59,2.54 53.66,7.3 v 45.66 c 0,10.16 -1.4,19.55 -4.17,27.9 -2.58,7.78 -6.42,14.91 -11.42,21.18 -8.65,10.85 -20.87,19.46 -37.34,26.34 l -0.72,0.3 -0.72,-0.3 C 40.15,125.19 27.93,116.57 19.28,105.73 14.28,99.46 10.44,92.34 7.86,84.55 5.09,76.2 3.69,66.81 3.69,56.65 V 10.98 C 20.75,6.23 38.73,3.69 57.33,3.69 M 57.33,0 C 38.78,0 20.4,2.5 2.7,7.43 L 0,8.18 v 48.47 c 0,10.56 1.47,20.34 4.36,29.06 2.72,8.2 6.77,15.7 12.04,22.31 9.05,11.34 21.74,20.32 38.8,27.45 l 0.7,0.3 1.43,0.6 1.43,-0.6 0.72,-0.3 c 17.05,-7.12 29.74,-16.1 38.79,-27.44 5.27,-6.61 9.32,-14.12 12.04,-22.31 2.89,-8.73 4.36,-18.51 4.36,-29.06 V 8.18 l -2.7,-0.75 C 94.27,2.5 75.88,0 57.33,0 Z"
         id="path46"
         style="stroke-width:0.714796" /></g></g></svg>
